<svg width="88" height="32" viewBox="0 0 88 32" fill="none" xmlns="http://www.w3.org/2000/svg">
<path d="M15.0435 5.18251C15.1663 5.06539 15.3299 5 15.5 5C15.6701 5 15.8337 5.06539 15.9565 5.18251C17.4121 6.5701 19.4842 7.32295 21.2538 7.72353C22.1294 7.92094 22.9105 8.02804 23.4716 8.08579C23.7619 8.1154 24.053 8.13676 24.3445 8.14984H24.3561C24.5283 8.15395 24.6921 8.2249 24.8124 8.34753C24.9327 8.47016 25 8.63474 25 8.8061V13.9249C25 18.9109 22.3294 23.9084 15.6969 25.9701C15.5687 26.01 15.4313 26.01 15.3031 25.9701C12.0109 24.9463 9.67281 23.1918 8.16231 21.0256C6.65656 18.8642 6 16.3331 6 13.7936V8.8061C5.99995 8.63474 6.06728 8.47016 6.1876 8.34753C6.30792 8.2249 6.47168 8.15395 6.64389 8.14984H6.6555L6.69772 8.14826C6.97515 8.13476 7.25216 8.11375 7.52844 8.08526C8.27428 8.00857 9.01484 7.8876 9.74617 7.72301C11.5153 7.32295 13.5873 6.57062 15.0435 5.18251ZM20.0457 12.9552C20.1102 12.8962 20.1622 12.8249 20.1987 12.7457C20.2352 12.6664 20.2555 12.5807 20.2583 12.4936C20.2611 12.4064 20.2465 12.3196 20.2152 12.2382C20.1839 12.1567 20.1367 12.0823 20.0761 12.0192C20.0156 11.9562 19.9431 11.9057 19.8627 11.8709C19.7824 11.836 19.6959 11.8174 19.6083 11.8162C19.5206 11.815 19.4336 11.8311 19.3523 11.8637C19.271 11.8963 19.1971 11.9447 19.1348 12.006L13.7953 17.0765L11.8763 15.1671C11.7525 15.044 11.5847 14.9748 11.4097 14.9748C11.2347 14.9748 11.0669 15.044 10.9432 15.1671C10.8194 15.2902 10.7499 15.4571 10.7499 15.6312C10.7499 15.8052 10.8194 15.9722 10.9432 16.0953L13.3182 18.4578C13.5715 18.7098 13.9811 18.715 14.2402 18.4683L20.0457 12.9552Z" fill="white"/>
<path d="M33.0866 23V13.1818H35.6818V14.9141H35.7969C36.0014 14.3388 36.3423 13.8849 36.8196 13.5526C37.2969 13.2202 37.8679 13.054 38.5327 13.054C39.206 13.054 39.7791 13.2223 40.2521 13.5589C40.7251 13.8913 41.0405 14.343 41.1982 14.9141H41.3004C41.5007 14.3516 41.8629 13.902 42.3871 13.5653C42.9155 13.2244 43.5398 13.054 44.2599 13.054C45.1761 13.054 45.9197 13.3459 46.4908 13.9297C47.0661 14.5092 47.3537 15.3317 47.3537 16.397V23H44.6371V16.9339C44.6371 16.3885 44.4922 15.9794 44.2024 15.7067C43.9126 15.4339 43.5504 15.2976 43.1158 15.2976C42.6214 15.2976 42.2358 15.4553 41.9588 15.7706C41.6818 16.0817 41.5433 16.4929 41.5433 17.0043V23H38.9034V16.8764C38.9034 16.3949 38.7649 16.0114 38.4879 15.7259C38.2152 15.4403 37.8551 15.2976 37.4077 15.2976C37.1051 15.2976 36.8324 15.3743 36.5895 15.5277C36.3509 15.6768 36.1612 15.8878 36.0206 16.1605C35.88 16.429 35.8097 16.7443 35.8097 17.1065V23H33.0866ZM53.079 23.1918C52.0691 23.1918 51.1998 22.9872 50.4711 22.5781C49.7467 22.1648 49.1884 21.581 48.7964 20.8267C48.4043 20.0682 48.2083 19.1712 48.2083 18.1357C48.2083 17.1257 48.4043 16.2393 48.7964 15.4766C49.1884 14.7138 49.7403 14.1193 50.4519 13.6932C51.1678 13.267 52.0073 13.054 52.9704 13.054C53.6181 13.054 54.2211 13.1584 54.7793 13.3672C55.3418 13.5717 55.8319 13.8807 56.2495 14.294C56.6714 14.7074 56.9995 15.2273 57.2339 15.8537C57.4683 16.4759 57.5854 17.2045 57.5854 18.0398V18.7876H49.295V17.1001H55.0222C55.0222 16.7081 54.937 16.3608 54.7665 16.0582C54.5961 15.7557 54.3596 15.5192 54.057 15.3487C53.7587 15.174 53.4114 15.0866 53.0151 15.0866C52.6018 15.0866 52.2353 15.1825 51.9157 15.3743C51.6004 15.5618 51.3532 15.8153 51.1742 16.1349C50.9952 16.4503 50.9036 16.8018 50.8994 17.1896V18.794C50.8994 19.2798 50.9888 19.6996 51.1678 20.0533C51.3511 20.407 51.6089 20.6797 51.9413 20.8714C52.2737 21.0632 52.6678 21.1591 53.1238 21.1591C53.4264 21.1591 53.7033 21.1165 53.9548 21.0312C54.2062 20.946 54.4214 20.8182 54.6004 20.6477C54.7793 20.4773 54.9157 20.2685 55.0094 20.0213L57.5279 20.1875C57.4001 20.7926 57.138 21.321 56.7417 21.7727C56.3496 22.2202 55.8425 22.5696 55.2204 22.821C54.6025 23.0682 53.8887 23.1918 53.079 23.1918ZM58.4624 23V13.1818H61.1023V14.8949H61.2046C61.3836 14.2855 61.684 13.8253 62.1059 13.5142C62.5278 13.1989 63.0136 13.0412 63.5633 13.0412C63.6996 13.0412 63.8467 13.0497 64.0043 13.0668C64.162 13.0838 64.3005 13.1072 64.4198 13.1371V15.5533C64.292 15.5149 64.1151 15.4808 63.8893 15.451C63.6634 15.4212 63.4567 15.4062 63.2692 15.4062C62.8687 15.4062 62.5107 15.4936 62.1954 15.6683C61.8843 15.8388 61.6371 16.0774 61.4539 16.3842C61.2749 16.6911 61.1854 17.0447 61.1854 17.4453V23H58.4624ZM67.6507 9.90909V23H64.9277V9.90909H67.6507ZM68.932 23V13.1818H71.655V23H68.932ZM70.2999 11.9162C69.895 11.9162 69.5477 11.782 69.258 11.5135C68.9724 11.2408 68.8297 10.9148 68.8297 10.5355C68.8297 10.1605 68.9724 9.83878 69.258 9.57031C69.5477 9.29758 69.895 9.16122 70.2999 9.16122C70.7047 9.16122 71.0499 9.29758 71.3354 9.57031C71.6251 9.83878 71.77 10.1605 71.77 10.5355C71.77 10.9148 71.6251 11.2408 71.3354 11.5135C71.0499 11.782 70.7047 11.9162 70.2999 11.9162ZM75.6593 17.3239V23H72.9363V13.1818H75.5314V14.9141H75.6465C75.8638 14.343 76.2282 13.8913 76.7395 13.5589C77.2509 13.2223 77.8709 13.054 78.5996 13.054C79.2814 13.054 79.8759 13.2031 80.383 13.5014C80.8901 13.7997 81.2843 14.2259 81.5655 14.7798C81.8468 15.3295 81.9874 15.9858 81.9874 16.7486V23H79.2644V17.2344C79.2686 16.6335 79.1152 16.1648 78.8042 15.8281C78.4931 15.4872 78.0648 15.3168 77.5194 15.3168C77.1529 15.3168 76.829 15.3956 76.5478 15.5533C76.2708 15.7109 76.0534 15.9411 75.8958 16.2436C75.7424 16.5419 75.6635 16.902 75.6593 17.3239Z" fill="white"/>
</svg>
