<svg width="166" height="178" viewBox="0 0 166 178" fill="none" xmlns="http://www.w3.org/2000/svg">
<path d="M45.9456 15.6117C30.1949 25.4391 18.9932 41.121 14.8047 59.2075C10.6163 77.294 13.7842 96.3036 23.6117 112.054C33.4391 127.805 49.121 139.007 67.2075 143.195C85.294 147.384 104.304 144.216 120.054 134.388C135.805 124.561 147.007 108.879 151.195 90.7925C155.384 72.706 152.216 53.6964 142.388 37.9457C132.561 22.1949 116.879 10.9932 98.7925 6.80472C80.706 2.61628 61.6964 5.78423 45.9457 15.6116L45.9456 15.6117Z" stroke="white" stroke-opacity="0.1" stroke-width="8" stroke-linejoin="round" stroke-dasharray="0.5 5"/>
<g filter="url(#filter0_i_1_3259)">
<path d="M83 145C101.565 145 119.37 137.625 132.497 124.497C145.625 111.37 153 93.5652 153 75C153 56.4349 145.625 38.6301 132.497 25.5025C119.37 12.375 101.565 5.00001 83 5" stroke="url(#paint0_linear_1_3259)" stroke-width="8" stroke-dasharray="0.5 5"/>
</g>
<g filter="url(#filter1_bdddi_1_3259)">
<circle cx="83" cy="75" r="63" fill="url(#paint1_linear_1_3259)" fill-opacity="0.2" shape-rendering="crispEdges"/>
<circle cx="83" cy="75" r="62.5" stroke="white" stroke-opacity="0.07" shape-rendering="crispEdges"/>
</g>
<g filter="url(#filter2_bdddi_1_3259)">
<circle cx="57" cy="57" r="57" transform="matrix(-1 0 0 1 140 18)" fill="url(#paint2_linear_1_3259)" fill-opacity="0.2" shape-rendering="crispEdges"/>
<circle cx="57" cy="57" r="56.5" transform="matrix(-1 0 0 1 140 18)" stroke="white" stroke-opacity="0.07" shape-rendering="crispEdges"/>
<circle cx="57" cy="57" r="56.5" transform="matrix(-1 0 0 1 140 18)" stroke="url(#paint3_linear_1_3259)" stroke-opacity="0.2" style="mix-blend-mode:overlay" shape-rendering="crispEdges"/>
</g>
<path d="M83 134.17C83 135.181 83.8196 136.003 84.8298 135.973C92.2165 135.751 99.5068 134.189 106.344 131.357C113.745 128.291 120.469 123.798 126.134 118.133C131.798 112.469 136.291 105.744 139.357 98.3436C142.422 90.9427 144 83.0105 144 74.9999C144 66.9892 142.422 59.057 139.357 51.6561C136.291 44.2553 131.798 37.5307 126.133 31.8663C120.469 26.202 113.744 21.7088 106.343 18.6433C99.5066 15.8113 92.2162 14.2491 84.8295 14.0274C83.8193 13.9971 82.9997 14.8193 82.9997 15.83C82.9997 16.8407 83.8193 17.6569 84.8295 17.6892C91.7354 17.9096 98.55 19.3767 104.943 22.0247C111.9 24.9062 118.221 29.1299 123.545 34.4544C128.87 39.7789 133.094 46.1 135.975 53.0568C138.857 60.0136 140.34 67.4699 140.34 74.9999C140.34 82.5299 138.857 89.9861 135.975 96.943C133.094 103.9 128.87 110.221 123.546 115.545C118.221 120.87 111.9 125.094 104.943 127.975C98.5503 130.623 91.7357 132.09 84.8297 132.311C83.8196 132.343 83 133.159 83 134.17Z" fill="url(#paint4_linear_1_3259)"/>
<path d="M83 134.17C83 135.181 83.8196 136.003 84.8298 135.973C92.2165 135.751 99.5068 134.189 106.344 131.357C113.745 128.291 120.469 123.798 126.134 118.133C131.798 112.469 136.291 105.744 139.357 98.3436C142.422 90.9427 144 83.0105 144 74.9999C144 66.9892 142.422 59.057 139.357 51.6561C136.291 44.2553 131.798 37.5307 126.133 31.8663C120.469 26.202 113.744 21.7088 106.343 18.6433C99.5066 15.8113 92.2162 14.2491 84.8295 14.0274C83.8193 13.9971 82.9997 14.8193 82.9997 15.83C82.9997 16.8407 83.8193 17.6569 84.8295 17.6892C91.7354 17.9096 98.55 19.3767 104.943 22.0247C111.9 24.9062 118.221 29.1299 123.545 34.4544C128.87 39.7789 133.094 46.1 135.975 53.0568C138.857 60.0136 140.34 67.4699 140.34 74.9999C140.34 82.5299 138.857 89.9861 135.975 96.943C133.094 103.9 128.87 110.221 123.546 115.545C118.221 120.87 111.9 125.094 104.943 127.975C98.5503 130.623 91.7357 132.09 84.8297 132.311C83.8196 132.343 83 133.159 83 134.17Z" stroke="white" stroke-opacity="0.1"/>
<path d="M83 134.17C83 135.181 83.8196 136.003 84.8298 135.973C92.2165 135.751 99.5068 134.189 106.344 131.357C113.745 128.291 120.469 123.798 126.134 118.133C131.798 112.469 136.291 105.744 139.357 98.3436C142.422 90.9427 144 83.0105 144 74.9999C144 66.9892 142.422 59.057 139.357 51.6561C136.291 44.2553 131.798 37.5307 126.133 31.8663C120.469 26.202 113.744 21.7088 106.343 18.6433C99.5066 15.8113 92.2162 14.2491 84.8295 14.0274C83.8193 13.9971 82.9997 14.8193 82.9997 15.83C82.9997 16.8407 83.8193 17.6569 84.8295 17.6892C91.7354 17.9096 98.55 19.3767 104.943 22.0247C111.9 24.9062 118.221 29.1299 123.545 34.4544C128.87 39.7789 133.094 46.1 135.975 53.0568C138.857 60.0136 140.34 67.4699 140.34 74.9999C140.34 82.5299 138.857 89.9861 135.975 96.943C133.094 103.9 128.87 110.221 123.546 115.545C118.221 120.87 111.9 125.094 104.943 127.975C98.5503 130.623 91.7357 132.09 84.8297 132.311C83.8196 132.343 83 133.159 83 134.17Z" stroke="url(#paint5_linear_1_3259)"/>
<circle cx="45" cy="45" r="40" transform="matrix(-1 0 0 1 128 30)" stroke="black" stroke-opacity="0.1" stroke-width="10"/>
<g filter="url(#filter3_bi_1_3259)">
<path d="M93.2307 135.292C95.2479 138.57 92.96 142.802 89.1125 142.91L76.0029 143.278C72.1554 143.386 69.6339 139.288 71.4642 135.902L77.7006 124.365C79.5309 120.979 84.3403 120.844 86.3575 124.122L93.2307 135.292Z" fill="url(#paint6_radial_1_3259)" fill-opacity="0.5"/>
<path d="M89.1265 143.41C93.3588 143.291 95.8754 138.636 93.6565 135.03L86.7833 123.86C84.5644 120.254 79.2741 120.403 77.2608 124.127L71.0244 135.664C69.011 139.389 71.7847 143.896 76.0169 143.778L89.1265 143.41Z" stroke="url(#paint7_angular_1_3259)" stroke-opacity="0.6"/>
</g>
<path d="M78.25 52.5H63.25C61.1789 52.5 59.5 54.1789 59.5 56.25V83.75C59.5 85.8211 61.1789 87.5 63.25 87.5H100.75C102.821 87.5 104.5 85.8211 104.5 83.75V71.25" stroke="white" stroke-width="4" stroke-linecap="round" stroke-linejoin="round"/>
<path d="M82 87.5V97.5" stroke="white" stroke-width="4" stroke-linecap="round" stroke-linejoin="round"/>
<path d="M92 52.5L87 57.5L92 62.5" stroke="white" stroke-width="4" stroke-linecap="round" stroke-linejoin="round"/>
<path d="M99.5 52.5L104.5 57.5L99.5 62.5" stroke="white" stroke-width="4" stroke-linecap="round" stroke-linejoin="round"/>
<path d="M69.5 97.5H94.5" stroke="white" stroke-width="4" stroke-linecap="round" stroke-linejoin="round"/>
<defs>
<filter id="filter0_i_1_3259" x="83" y="1" width="74" height="148" filterUnits="userSpaceOnUse" color-interpolation-filters="sRGB">
<feFlood flood-opacity="0" result="BackgroundImageFix"/>
<feBlend mode="normal" in="SourceGraphic" in2="BackgroundImageFix" result="shape"/>
<feColorMatrix in="SourceAlpha" type="matrix" values="0 0 0 0 0 0 0 0 0 0 0 0 0 0 0 0 0 0 127 0" result="hardAlpha"/>
<feOffset dy="1"/>
<feComposite in2="hardAlpha" operator="arithmetic" k2="-1" k3="1"/>
<feColorMatrix type="matrix" values="0 0 0 0 0.556863 0 0 0 0 0.607843 0 0 0 0 0.682353 0 0 0 0.5 0"/>
<feBlend mode="normal" in2="shape" result="effect1_innerShadow_1_3259"/>
</filter>
<filter id="filter1_bdddi_1_3259" x="0" y="2" width="166" height="176" filterUnits="userSpaceOnUse" color-interpolation-filters="sRGB">
<feFlood flood-opacity="0" result="BackgroundImageFix"/>
<feGaussianBlur in="BackgroundImageFix" stdDeviation="5"/>
<feComposite in2="SourceAlpha" operator="in" result="effect1_backgroundBlur_1_3259"/>
<feColorMatrix in="SourceAlpha" type="matrix" values="0 0 0 0 0 0 0 0 0 0 0 0 0 0 0 0 0 0 127 0" result="hardAlpha"/>
<feOffset dy="20"/>
<feGaussianBlur stdDeviation="10"/>
<feComposite in2="hardAlpha" operator="out"/>
<feColorMatrix type="matrix" values="0 0 0 0 0 0 0 0 0 0 0 0 0 0 0 0 0 0 0.1 0"/>
<feBlend mode="normal" in2="effect1_backgroundBlur_1_3259" result="effect2_dropShadow_1_3259"/>
<feColorMatrix in="SourceAlpha" type="matrix" values="0 0 0 0 0 0 0 0 0 0 0 0 0 0 0 0 0 0 127 0" result="hardAlpha"/>
<feOffset dy="5"/>
<feGaussianBlur stdDeviation="5"/>
<feComposite in2="hardAlpha" operator="out"/>
<feColorMatrix type="matrix" values="0 0 0 0 0 0 0 0 0 0 0 0 0 0 0 0 0 0 0.05 0"/>
<feBlend mode="normal" in2="effect2_dropShadow_1_3259" result="effect3_dropShadow_1_3259"/>
<feColorMatrix in="SourceAlpha" type="matrix" values="0 0 0 0 0 0 0 0 0 0 0 0 0 0 0 0 0 0 127 0" result="hardAlpha"/>
<feOffset dy="2"/>
<feGaussianBlur stdDeviation="2"/>
<feComposite in2="hardAlpha" operator="out"/>
<feColorMatrix type="matrix" values="0 0 0 0 0 0 0 0 0 0 0 0 0 0 0 0 0 0 0.05 0"/>
<feBlend mode="normal" in2="effect3_dropShadow_1_3259" result="effect4_dropShadow_1_3259"/>
<feBlend mode="normal" in="SourceGraphic" in2="effect4_dropShadow_1_3259" result="shape"/>
<feColorMatrix in="SourceAlpha" type="matrix" values="0 0 0 0 0 0 0 0 0 0 0 0 0 0 0 0 0 0 127 0" result="hardAlpha"/>
<feOffset dy="30"/>
<feGaussianBlur stdDeviation="30"/>
<feComposite in2="hardAlpha" operator="arithmetic" k2="-1" k3="1"/>
<feColorMatrix type="matrix" values="0 0 0 0 1 0 0 0 0 1 0 0 0 0 1 0 0 0 0.15 0"/>
<feBlend mode="normal" in2="shape" result="effect5_innerShadow_1_3259"/>
</filter>
<filter id="filter2_bdddi_1_3259" x="6" y="8" width="154" height="164" filterUnits="userSpaceOnUse" color-interpolation-filters="sRGB">
<feFlood flood-opacity="0" result="BackgroundImageFix"/>
<feGaussianBlur in="BackgroundImageFix" stdDeviation="5"/>
<feComposite in2="SourceAlpha" operator="in" result="effect1_backgroundBlur_1_3259"/>
<feColorMatrix in="SourceAlpha" type="matrix" values="0 0 0 0 0 0 0 0 0 0 0 0 0 0 0 0 0 0 127 0" result="hardAlpha"/>
<feOffset dy="20"/>
<feGaussianBlur stdDeviation="10"/>
<feComposite in2="hardAlpha" operator="out"/>
<feColorMatrix type="matrix" values="0 0 0 0 0 0 0 0 0 0 0 0 0 0 0 0 0 0 0.1 0"/>
<feBlend mode="normal" in2="effect1_backgroundBlur_1_3259" result="effect2_dropShadow_1_3259"/>
<feColorMatrix in="SourceAlpha" type="matrix" values="0 0 0 0 0 0 0 0 0 0 0 0 0 0 0 0 0 0 127 0" result="hardAlpha"/>
<feOffset dy="5"/>
<feGaussianBlur stdDeviation="5"/>
<feComposite in2="hardAlpha" operator="out"/>
<feColorMatrix type="matrix" values="0 0 0 0 0 0 0 0 0 0 0 0 0 0 0 0 0 0 0.05 0"/>
<feBlend mode="normal" in2="effect2_dropShadow_1_3259" result="effect3_dropShadow_1_3259"/>
<feColorMatrix in="SourceAlpha" type="matrix" values="0 0 0 0 0 0 0 0 0 0 0 0 0 0 0 0 0 0 127 0" result="hardAlpha"/>
<feOffset dy="2"/>
<feGaussianBlur stdDeviation="2"/>
<feComposite in2="hardAlpha" operator="out"/>
<feColorMatrix type="matrix" values="0 0 0 0 0 0 0 0 0 0 0 0 0 0 0 0 0 0 0.05 0"/>
<feBlend mode="normal" in2="effect3_dropShadow_1_3259" result="effect4_dropShadow_1_3259"/>
<feBlend mode="normal" in="SourceGraphic" in2="effect4_dropShadow_1_3259" result="shape"/>
<feColorMatrix in="SourceAlpha" type="matrix" values="0 0 0 0 0 0 0 0 0 0 0 0 0 0 0 0 0 0 127 0" result="hardAlpha"/>
<feOffset dy="30"/>
<feGaussianBlur stdDeviation="30"/>
<feComposite in2="hardAlpha" operator="arithmetic" k2="-1" k3="1"/>
<feColorMatrix type="matrix" values="0 0 0 0 1 0 0 0 0 1 0 0 0 0 1 0 0 0 0.15 0"/>
<feBlend mode="normal" in2="shape" result="effect5_innerShadow_1_3259"/>
</filter>
<filter id="filter3_bi_1_3259" x="59.8535" y="110.743" width="45.1274" height="43.5373" filterUnits="userSpaceOnUse" color-interpolation-filters="sRGB">
<feFlood flood-opacity="0" result="BackgroundImageFix"/>
<feGaussianBlur in="BackgroundImageFix" stdDeviation="5"/>
<feComposite in2="SourceAlpha" operator="in" result="effect1_backgroundBlur_1_3259"/>
<feBlend mode="normal" in="SourceGraphic" in2="effect1_backgroundBlur_1_3259" result="shape"/>
<feColorMatrix in="SourceAlpha" type="matrix" values="0 0 0 0 0 0 0 0 0 0 0 0 0 0 0 0 0 0 127 0" result="hardAlpha"/>
<feOffset/>
<feGaussianBlur stdDeviation="10"/>
<feComposite in2="hardAlpha" operator="arithmetic" k2="-1" k3="1"/>
<feColorMatrix type="matrix" values="0 0 0 0 0.497041 0 0 0 0 0.638518 0 0 0 0 0.740967 0 0 0 0.52 0"/>
<feBlend mode="normal" in2="shape" result="effect2_innerShadow_1_3259"/>
</filter>
<linearGradient id="paint0_linear_1_3259" x1="112.161" y1="8.0511" x2="143.689" y2="124.502" gradientUnits="userSpaceOnUse">
<stop stop-color="#D782FF"/>
<stop offset="0.965972" stop-color="#00A3FF"/>
</linearGradient>
<linearGradient id="paint1_linear_1_3259" x1="83" y1="12" x2="83" y2="138" gradientUnits="userSpaceOnUse">
<stop stop-opacity="0.1"/>
<stop offset="0.692708" stop-opacity="0.0677083"/>
<stop offset="1"/>
</linearGradient>
<linearGradient id="paint2_linear_1_3259" x1="57" y1="0" x2="57" y2="114" gradientUnits="userSpaceOnUse">
<stop stop-opacity="0.1"/>
<stop offset="0.692708" stop-opacity="0.0677083"/>
<stop offset="1"/>
</linearGradient>
<linearGradient id="paint3_linear_1_3259" x1="43.1062" y1="79.0722" x2="94.0421" y2="6.9282" gradientUnits="userSpaceOnUse">
<stop stop-color="white" stop-opacity="0"/>
<stop offset="1" stop-color="white"/>
</linearGradient>
<linearGradient id="paint4_linear_1_3259" x1="41.4091" y1="14" x2="144" y2="136" gradientUnits="userSpaceOnUse">
<stop stop-color="white"/>
<stop offset="0.75" stop-color="#285299"/>
</linearGradient>
<linearGradient id="paint5_linear_1_3259" x1="83" y1="8.28125" x2="83" y2="136" gradientUnits="userSpaceOnUse">
<stop stop-color="#2737CF" stop-opacity="0"/>
<stop offset="1" stop-color="#BDFCFE"/>
</linearGradient>
<radialGradient id="paint6_radial_1_3259" cx="0" cy="0" r="1" gradientUnits="userSpaceOnUse" gradientTransform="translate(82.2948 134.342) rotate(-151.606) scale(21.8672 10.8393)">
<stop stop-color="#2E335A"/>
<stop offset="1" stop-color="#1C1B33" stop-opacity="0.2"/>
</radialGradient>
<radialGradient id="paint7_angular_1_3259" cx="0" cy="0" r="1" gradientUnits="userSpaceOnUse" gradientTransform="translate(82.3114 134.312) rotate(-151.606) scale(17.5718)">
<stop offset="0.322441" stop-color="white"/>
<stop offset="0.495395" stop-color="#74A2B6" stop-opacity="0.05"/>
<stop offset="0.698546" stop-color="#84C5E1"/>
<stop offset="0.991648" stop-color="#17B9FF" stop-opacity="0"/>
<stop offset="0.993038" stop-color="#5B8698" stop-opacity="0"/>
</radialGradient>
</defs>
</svg>
