<svg width="182" height="187" viewBox="0 0 182 187" fill="none" xmlns="http://www.w3.org/2000/svg">
<g filter="url(#filter0_bdddi_1_3250)">
<circle cx="91" cy="76" r="71" fill="url(#paint0_linear_1_3250)" fill-opacity="0.2" shape-rendering="crispEdges"/>
<circle cx="91" cy="76" r="70.5" stroke="white" stroke-opacity="0.07" shape-rendering="crispEdges"/>
</g>
<path d="M144 76C144 105.271 120.495 129 91.5 129C62.5051 129 39 105.271 39 76C39 46.7289 62.5051 23 91.5 23C120.495 23 144 46.7289 144 76Z" stroke="white" stroke-opacity="0.2" stroke-width="5" stroke-dasharray="0.5 5"/>
<path d="M106.021 131.956C75.1055 140.24 43.3277 121.893 35.0438 90.977C26.7599 60.061 45.1068 28.2833 76.0228 19.9993C106.939 11.7154 138.717 30.0623 147 60.9783C155.284 91.8943 136.937 123.672 106.021 131.956ZM76.7727 22.7983C47.4026 30.668 29.973 60.8569 37.8427 90.227C45.7124 119.597 75.9013 137.027 105.272 129.157C134.642 121.287 152.071 91.0985 144.202 61.7283C136.332 32.3581 106.143 14.9285 76.7727 22.7983Z" fill="white" fill-opacity="0.1"/>
<g style="mix-blend-mode:plus-lighter" filter="url(#filter1_f_1_3250)">
<path d="M106.021 131.956C75.1055 140.24 43.3277 121.893 35.0438 90.977C26.7599 60.061 45.1068 28.2833 76.0228 19.9993C106.939 11.7154 138.717 30.0623 147 60.9783C155.284 91.8943 136.937 123.672 106.021 131.956ZM76.7727 22.7983C47.4026 30.668 29.973 60.8569 37.8427 90.227C45.7124 119.597 75.9013 137.027 105.272 129.157C134.642 121.287 152.071 91.0985 144.202 61.7283C136.332 32.3581 106.143 14.9285 76.7727 22.7983Z" fill="url(#paint1_angular_1_3250)"/>
</g>
<path d="M91.0221 18.6042C91.0221 18.2841 91.2818 18.0243 91.6019 18.0275C103.502 18.1465 115.083 21.9269 124.766 28.8619C134.606 35.9094 141.993 45.8611 145.89 57.3204C149.786 68.7796 149.997 81.1714 146.493 92.7567C143.045 104.157 136.169 114.213 126.808 121.562C126.556 121.76 126.192 121.712 125.997 121.458C125.802 121.205 125.85 120.841 126.101 120.643C135.271 113.442 142.005 103.59 145.384 92.4211C148.818 81.0675 148.611 68.9236 144.792 57.6935C140.974 46.4634 133.735 36.7108 124.091 29.8042C114.605 23.0102 103.26 19.3056 91.6019 19.1867C91.2818 19.1834 91.0221 18.9242 91.0221 18.6042Z" fill="url(#paint2_linear_1_3250)"/>
<path d="M91.0221 18.6042C91.0221 18.2841 91.2818 18.0243 91.6019 18.0275C103.502 18.1465 115.083 21.9269 124.766 28.8619C134.606 35.9094 141.993 45.8611 145.89 57.3204C149.786 68.7796 149.997 81.1714 146.493 92.7567C143.045 104.157 136.169 114.213 126.808 121.562C126.556 121.76 126.192 121.712 125.997 121.458C125.802 121.205 125.85 120.841 126.101 120.643C135.271 113.442 142.005 103.59 145.384 92.4211C148.818 81.0675 148.611 68.9236 144.792 57.6935C140.974 46.4634 133.735 36.7108 124.091 29.8042C114.605 23.0102 103.26 19.3056 91.6019 19.1867C91.2818 19.1834 91.0221 18.9242 91.0221 18.6042Z" stroke="white" stroke-opacity="0.1"/>
<path d="M91.0221 18.6042C91.0221 18.2841 91.2818 18.0243 91.6019 18.0275C103.502 18.1465 115.083 21.9269 124.766 28.8619C134.606 35.9094 141.993 45.8611 145.89 57.3204C149.786 68.7796 149.997 81.1714 146.493 92.7567C143.045 104.157 136.169 114.213 126.808 121.562C126.556 121.76 126.192 121.712 125.997 121.458C125.802 121.205 125.85 120.841 126.101 120.643C135.271 113.442 142.005 103.59 145.384 92.4211C148.818 81.0675 148.611 68.9236 144.792 57.6935C140.974 46.4634 133.735 36.7108 124.091 29.8042C114.605 23.0102 103.26 19.3056 91.6019 19.1867C91.2818 19.1834 91.0221 18.9242 91.0221 18.6042Z" stroke="url(#paint3_linear_1_3250)"/>
<path d="M94.002 100.271C94.1908 100.988 94.3324 101.715 94.4268 102.451C94.5212 103.188 94.5872 103.943 94.625 104.717C97.0417 104.434 99.3451 103.867 101.535 103.018C103.725 102.168 105.755 101.082 107.624 99.7607C109.493 98.4391 111.192 96.9098 112.722 95.1729C114.251 93.4359 115.554 91.5479 116.63 89.5088C117.706 87.4697 118.537 85.3174 119.122 83.0518C119.707 80.7861 120 78.4355 120 76C120 73.3379 119.66 70.7702 118.98 68.2969C118.301 65.8236 117.328 63.5107 116.063 61.3584C114.799 59.2061 113.288 57.252 111.532 55.4961C109.776 53.7402 107.813 52.2298 105.642 50.9648C103.47 49.6999 101.167 48.7275 98.7314 48.0479C96.2959 47.3682 93.7188 47.0189 91 47C88.3379 47 85.7796 47.3398 83.3252 48.0195C80.8708 48.6992 78.5579 49.681 76.3867 50.9648C74.2155 52.2487 72.2614 53.7591 70.5244 55.4961C68.7874 57.2331 67.2676 59.1966 65.9648 61.3867C64.6621 63.5768 63.6898 65.8802 63.0479 68.2969C62.4059 70.7135 62.0566 73.2812 62 76H64.0107C64.2751 75.5658 64.5488 75.141 64.832 74.7256C65.1152 74.3102 65.4456 73.9137 65.8232 73.5361C65.9365 71.8936 66.2292 70.2982 66.7012 68.75H101.394C101.545 69.9583 101.658 71.1572 101.733 72.3467C101.809 73.5361 101.856 74.7539 101.875 76C101.875 77.2272 101.837 78.4355 101.762 79.625C101.686 80.8145 101.563 82.0228 101.394 83.25H91C91 83.8542 90.9528 84.4583 90.8584 85.0625C90.764 85.6667 90.6413 86.2708 90.4902 86.875H100.771C100.544 87.9512 100.242 89.1312 99.8643 90.415C99.4867 91.6989 99.0146 92.9544 98.4482 94.1816C97.8818 95.4089 97.2305 96.5605 96.4941 97.6367C95.7578 98.7129 94.9271 99.5908 94.002 100.271ZM68.0889 65.125C68.8252 63.5957 69.6937 62.1608 70.6943 60.8203C71.695 59.4798 72.8278 58.2526 74.0928 57.1387C75.3577 56.0247 76.6982 55.0335 78.1143 54.165C79.5303 53.2965 81.0596 52.5885 82.7021 52.041C82.0225 52.985 81.4183 53.9857 80.8896 55.043C80.361 56.1003 79.8796 57.1859 79.4453 58.2998C79.0111 59.4137 78.6429 60.5465 78.3408 61.6982C78.0387 62.8499 77.7744 63.9922 77.5479 65.125H68.0889ZM91 50.625C91.944 50.625 92.8125 50.8799 93.6055 51.3896C94.3984 51.8994 95.1348 52.5697 95.8145 53.4004C96.4941 54.2311 97.0983 55.1657 97.627 56.2041C98.1556 57.2425 98.637 58.3092 99.0713 59.4043C99.5055 60.4993 99.8548 61.5378 100.119 62.5195C100.383 63.5013 100.601 64.3698 100.771 65.125H81.2295C81.3805 64.3887 81.5977 63.5202 81.8809 62.5195C82.1641 61.5189 82.5133 60.4805 82.9287 59.4043C83.3441 58.3281 83.8161 57.2708 84.3447 56.2324C84.8734 55.194 85.4775 54.25 86.1572 53.4004C86.8369 52.5508 87.5827 51.8805 88.3945 51.3896C89.2064 50.8988 90.0749 50.6439 91 50.625ZM99.2695 52.0127C100.874 52.5602 102.404 53.2588 103.857 54.1084C105.311 54.958 106.661 55.9492 107.907 57.082C109.153 58.2148 110.286 59.4515 111.306 60.792C112.325 62.1325 113.194 63.5768 113.911 65.125H104.452C104.244 64.0866 103.99 62.9821 103.688 61.8115C103.385 60.641 103.008 59.4704 102.555 58.2998C102.102 57.1292 101.611 56.0059 101.082 54.9297C100.553 53.8535 99.9492 52.8812 99.2695 52.0127ZM116.375 76C116.375 78.5111 116.026 80.9277 115.327 83.25H105.047C105.198 82.0417 105.311 80.8428 105.387 79.6533C105.462 78.4639 105.5 77.2461 105.5 76C105.5 74.7728 105.462 73.5645 105.387 72.375C105.311 71.1855 105.198 69.9772 105.047 68.75H115.327C116.026 71.0723 116.375 73.4889 116.375 76ZM113.968 86.875C113.231 88.4043 112.363 89.8392 111.362 91.1797C110.362 92.5202 109.229 93.7568 107.964 94.8896C106.699 96.0225 105.34 97.0042 103.886 97.835C102.432 98.6657 100.903 99.3737 99.2979 99.959C99.9775 99.015 100.582 98.0143 101.11 96.957C101.639 95.8997 102.12 94.8141 102.555 93.7002C102.989 92.5863 103.357 91.4534 103.659 90.3018C103.961 89.1501 104.235 88.0078 104.48 86.875H113.968ZM70.0996 92.001C68.8724 92.624 67.7585 93.3887 66.7578 94.2949C65.7572 95.2012 64.9076 96.2207 64.209 97.3535C63.5104 98.4863 62.9629 99.6947 62.5664 100.979C62.1699 102.262 61.9811 103.603 62 105H65.625C65.625 103.508 65.9082 102.102 66.4746 100.78C67.041 99.4587 67.8151 98.307 68.7969 97.3252C69.7786 96.3434 70.9398 95.5599 72.2803 94.9746C73.6208 94.3893 75.0273 94.1061 76.5 94.125C78.0104 94.125 79.417 94.4082 80.7197 94.9746C82.0225 95.541 83.1742 96.3151 84.1748 97.2969C85.1755 98.2786 85.959 99.4398 86.5254 100.78C87.0918 102.121 87.375 103.527 87.375 105H91C91 103.622 90.8112 102.291 90.4336 101.007C90.056 99.723 89.5179 98.5052 88.8193 97.3535C88.1208 96.2018 87.2712 95.1823 86.2705 94.2949C85.2699 93.4076 84.1559 92.6429 82.9287 92.001C84.3447 90.9814 85.4398 89.707 86.2139 88.1777C86.988 86.6484 87.375 85.0059 87.375 83.25C87.375 81.7585 87.0918 80.3519 86.5254 79.0303C85.959 77.7087 85.1849 76.557 84.2031 75.5752C83.2214 74.5934 82.0697 73.8099 80.748 73.2246C79.4264 72.6393 78.0104 72.3561 76.5 72.375C75.0085 72.375 73.6019 72.6582 72.2803 73.2246C70.9587 73.791 69.807 74.5651 68.8252 75.5469C67.8434 76.5286 67.0599 77.6898 66.4746 79.0303C65.8893 80.3708 65.6061 81.7773 65.625 83.25C65.625 84.987 66.012 86.6201 66.7861 88.1494C67.5602 89.6787 68.6647 90.9626 70.0996 92.001ZM76.5 90.5C75.4993 90.5 74.5648 90.3112 73.6963 89.9336C72.8278 89.556 72.0537 89.0368 71.374 88.376C70.6943 87.7152 70.1751 86.9505 69.8164 86.082C69.4577 85.2135 69.2689 84.2695 69.25 83.25C69.25 82.2493 69.4388 81.3148 69.8164 80.4463C70.194 79.5778 70.7132 78.8037 71.374 78.124C72.0348 77.4443 72.7995 76.9251 73.668 76.5664C74.5365 76.2077 75.4805 76.0189 76.5 76C77.5007 76 78.4352 76.1888 79.3037 76.5664C80.1722 76.944 80.9463 77.4632 81.626 78.124C82.3057 78.7848 82.8249 79.5495 83.1836 80.418C83.5423 81.2865 83.7311 82.2305 83.75 83.25C83.75 84.2507 83.5612 85.1852 83.1836 86.0537C82.806 86.9222 82.2868 87.6963 81.626 88.376C80.9652 89.0557 80.2005 89.5749 79.332 89.9336C78.4635 90.2923 77.5195 90.4811 76.5 90.5Z" fill="white"/>
<defs>
<filter id="filter0_bdddi_1_3250" x="0" y="-5" width="182" height="192" filterUnits="userSpaceOnUse" color-interpolation-filters="sRGB">
<feFlood flood-opacity="0" result="BackgroundImageFix"/>
<feGaussianBlur in="BackgroundImageFix" stdDeviation="5"/>
<feComposite in2="SourceAlpha" operator="in" result="effect1_backgroundBlur_1_3250"/>
<feColorMatrix in="SourceAlpha" type="matrix" values="0 0 0 0 0 0 0 0 0 0 0 0 0 0 0 0 0 0 127 0" result="hardAlpha"/>
<feOffset dy="20"/>
<feGaussianBlur stdDeviation="10"/>
<feComposite in2="hardAlpha" operator="out"/>
<feColorMatrix type="matrix" values="0 0 0 0 0 0 0 0 0 0 0 0 0 0 0 0 0 0 0.1 0"/>
<feBlend mode="normal" in2="effect1_backgroundBlur_1_3250" result="effect2_dropShadow_1_3250"/>
<feColorMatrix in="SourceAlpha" type="matrix" values="0 0 0 0 0 0 0 0 0 0 0 0 0 0 0 0 0 0 127 0" result="hardAlpha"/>
<feOffset dy="5"/>
<feGaussianBlur stdDeviation="5"/>
<feComposite in2="hardAlpha" operator="out"/>
<feColorMatrix type="matrix" values="0 0 0 0 0 0 0 0 0 0 0 0 0 0 0 0 0 0 0.05 0"/>
<feBlend mode="normal" in2="effect2_dropShadow_1_3250" result="effect3_dropShadow_1_3250"/>
<feColorMatrix in="SourceAlpha" type="matrix" values="0 0 0 0 0 0 0 0 0 0 0 0 0 0 0 0 0 0 127 0" result="hardAlpha"/>
<feOffset dy="2"/>
<feGaussianBlur stdDeviation="2"/>
<feComposite in2="hardAlpha" operator="out"/>
<feColorMatrix type="matrix" values="0 0 0 0 0 0 0 0 0 0 0 0 0 0 0 0 0 0 0.05 0"/>
<feBlend mode="normal" in2="effect3_dropShadow_1_3250" result="effect4_dropShadow_1_3250"/>
<feBlend mode="normal" in="SourceGraphic" in2="effect4_dropShadow_1_3250" result="shape"/>
<feColorMatrix in="SourceAlpha" type="matrix" values="0 0 0 0 0 0 0 0 0 0 0 0 0 0 0 0 0 0 127 0" result="hardAlpha"/>
<feOffset dy="30"/>
<feGaussianBlur stdDeviation="30"/>
<feComposite in2="hardAlpha" operator="arithmetic" k2="-1" k3="1"/>
<feColorMatrix type="matrix" values="0 0 0 0 1 0 0 0 0 1 0 0 0 0 1 0 0 0 0.15 0"/>
<feBlend mode="normal" in2="shape" result="effect5_innerShadow_1_3250"/>
</filter>
<filter id="filter1_f_1_3250" x="23.0547" y="8.01025" width="135.935" height="135.935" filterUnits="userSpaceOnUse" color-interpolation-filters="sRGB">
<feFlood flood-opacity="0" result="BackgroundImageFix"/>
<feBlend mode="normal" in="SourceGraphic" in2="BackgroundImageFix" result="shape"/>
<feGaussianBlur stdDeviation="5" result="effect1_foregroundBlur_1_3250"/>
</filter>
<linearGradient id="paint0_linear_1_3250" x1="91" y1="5" x2="91" y2="147" gradientUnits="userSpaceOnUse">
<stop stop-opacity="0.1"/>
<stop offset="0.692708" stop-opacity="0.0677083"/>
<stop offset="1"/>
</linearGradient>
<radialGradient id="paint1_angular_1_3250" cx="0" cy="0" r="1" gradientUnits="userSpaceOnUse" gradientTransform="translate(91.0221 75.9777) rotate(135) scale(56.7085)">
<stop offset="0.392191" stop-color="white" stop-opacity="0"/>
<stop offset="0.772423" stop-color="white"/>
<stop offset="0.808184" stop-color="white" stop-opacity="0"/>
</radialGradient>
<linearGradient id="paint2_linear_1_3250" x1="157.227" y1="99.1453" x2="20.0445" y2="34.9987" gradientUnits="userSpaceOnUse">
<stop stop-color="white"/>
<stop offset="0.75" stop-color="#285299"/>
</linearGradient>
<linearGradient id="paint3_linear_1_3250" x1="152.248" y1="59.5721" x2="35.0438" y2="90.977" gradientUnits="userSpaceOnUse">
<stop stop-color="#2737CF" stop-opacity="0"/>
<stop offset="1" stop-color="#BDFCFE"/>
</linearGradient>
</defs>
</svg>
