<svg width="28" height="33" viewBox="0 0 28 33" fill="none" xmlns="http://www.w3.org/2000/svg">
<g filter="url(#filter0_bddd_2442_369)">
<g clip-path="url(#clip0_2442_369)">
<path d="M15.3333 11.25H9.33325" stroke="white" stroke-width="1.125" stroke-miterlimit="10" stroke-linecap="round" stroke-linejoin="round"/>
<path d="M19.3333 11.25H17.3333" stroke="white" stroke-width="1.125" stroke-miterlimit="10" stroke-linecap="round" stroke-linejoin="round"/>
<path d="M19.3333 7.75H13.3333" stroke="white" stroke-width="1.125" stroke-miterlimit="10" stroke-linecap="round" stroke-linejoin="round"/>
<path d="M11.3333 7.75H9.33325" stroke="white" stroke-width="1.125" stroke-miterlimit="10" stroke-linecap="round" stroke-linejoin="round"/>
<path d="M19.3333 14.75H13.3333" stroke="white" stroke-width="1.125" stroke-miterlimit="10" stroke-linecap="round" stroke-linejoin="round"/>
<path d="M11.3333 14.75H9.33325" stroke="white" stroke-width="1.125" stroke-miterlimit="10" stroke-linecap="round" stroke-linejoin="round"/>
<path d="M16.3333 12.25C16.8855 12.25 17.3333 11.8023 17.3333 11.25C17.3333 10.6977 16.8855 10.25 16.3333 10.25C15.781 10.25 15.3333 10.6977 15.3333 11.25C15.3333 11.8023 15.781 12.25 16.3333 12.25Z" stroke="white" stroke-width="1.125" stroke-miterlimit="10" stroke-linecap="round" stroke-linejoin="round"/>
<path d="M12.3333 8.75C12.8855 8.75 13.3333 8.30228 13.3333 7.75C13.3333 7.19772 12.8855 6.75 12.3333 6.75C11.781 6.75 11.3333 7.19772 11.3333 7.75C11.3333 8.30228 11.781 8.75 12.3333 8.75Z" stroke="white" stroke-width="1.125" stroke-miterlimit="10" stroke-linecap="round" stroke-linejoin="round"/>
<path d="M12.3333 15.75C12.8855 15.75 13.3333 15.3023 13.3333 14.75C13.3333 14.1977 12.8855 13.75 12.3333 13.75C11.781 13.75 11.3333 14.1977 11.3333 14.75C11.3333 15.3023 11.781 15.75 12.3333 15.75Z" stroke="white" stroke-width="1.125" stroke-miterlimit="10" stroke-linecap="round" stroke-linejoin="round"/>
</g>
</g>
<defs>
<filter id="filter0_bddd_2442_369" x="-11.1667" y="-14.25" width="51" height="51" filterUnits="userSpaceOnUse" color-interpolation-filters="sRGB">
<feFlood flood-opacity="0" result="BackgroundImageFix"/>
<feGaussianBlur in="BackgroundImageFix" stdDeviation="7.5"/>
<feComposite in2="SourceAlpha" operator="in" result="effect1_backgroundBlur_2442_369"/>
<feColorMatrix in="SourceAlpha" type="matrix" values="0 0 0 0 0 0 0 0 0 0 0 0 0 0 0 0 0 0 127 0" result="hardAlpha"/>
<feOffset dy="7.5"/>
<feGaussianBlur stdDeviation="3.75"/>
<feComposite in2="hardAlpha" operator="out"/>
<feColorMatrix type="matrix" values="0 0 0 0 0 0 0 0 0 0 0 0 0 0 0 0 0 0 0.1 0"/>
<feBlend mode="normal" in2="effect1_backgroundBlur_2442_369" result="effect2_dropShadow_2442_369"/>
<feColorMatrix in="SourceAlpha" type="matrix" values="0 0 0 0 0 0 0 0 0 0 0 0 0 0 0 0 0 0 127 0" result="hardAlpha"/>
<feOffset dy="3"/>
<feGaussianBlur stdDeviation="1.5"/>
<feComposite in2="hardAlpha" operator="out"/>
<feColorMatrix type="matrix" values="0 0 0 0 0 0 0 0 0 0 0 0 0 0 0 0 0 0 0.05 0"/>
<feBlend mode="normal" in2="effect2_dropShadow_2442_369" result="effect3_dropShadow_2442_369"/>
<feColorMatrix in="SourceAlpha" type="matrix" values="0 0 0 0 0 0 0 0 0 0 0 0 0 0 0 0 0 0 127 0" result="hardAlpha"/>
<feOffset dy="0.75"/>
<feComposite in2="hardAlpha" operator="out"/>
<feColorMatrix type="matrix" values="0 0 0 0 0 0 0 0 0 0 0 0 0 0 0 0 0 0 0.05 0"/>
<feBlend mode="normal" in2="effect3_dropShadow_2442_369" result="effect4_dropShadow_2442_369"/>
<feBlend mode="normal" in="SourceGraphic" in2="effect4_dropShadow_2442_369" result="shape"/>
</filter>
<clipPath id="clip0_2442_369">
<rect width="12" height="12" fill="white" transform="translate(8.33325 5.25)"/>
</clipPath>
</defs>
</svg>
