<svg width="39" height="39" viewBox="0 0 39 39" fill="none" xmlns="http://www.w3.org/2000/svg">
<g filter="url(#filter0_bddd_2032_5831)">
<rect x="10.3333" y="0.75" width="18" height="18" rx="9" fill="black" fill-opacity="0.6" shape-rendering="crispEdges"/>
<rect x="10.7083" y="1.125" width="17.25" height="17.25" rx="8.625" stroke="white" stroke-opacity="0.1" stroke-width="0.75" shape-rendering="crispEdges"/>
<path d="M17.0757 13.25H14.7801V6.15909H17.1484C17.8432 6.15909 18.4398 6.30105 18.9384 6.58496C19.437 6.86657 19.819 7.27166 20.0845 7.80025C20.3522 8.32653 20.4861 8.95783 20.4861 9.69416C20.4861 10.4328 20.3511 11.0676 20.081 11.5985C19.8132 12.1294 19.4255 12.5379 18.9176 12.8241C18.4098 13.108 17.7958 13.25 17.0757 13.25ZM15.85 12.3152H17.0168C17.5569 12.3152 18.0059 12.2136 18.3637 12.0105C18.7214 11.805 18.9892 11.5084 19.1669 11.1206C19.3447 10.7306 19.4335 10.2551 19.4335 9.69416C19.4335 9.13787 19.3447 8.66584 19.1669 8.27805C18.9915 7.89027 18.7295 7.59597 18.381 7.39515C18.0324 7.19434 17.5996 7.09393 17.0826 7.09393H15.85V12.3152ZM22.8864 6.15909V13.25H21.8165V6.15909H22.8864Z" fill="white"/>
</g>
<defs>
<filter id="filter0_bddd_2032_5831" x="-9.66675" y="-19.25" width="58" height="58" filterUnits="userSpaceOnUse" color-interpolation-filters="sRGB">
<feFlood flood-opacity="0" result="BackgroundImageFix"/>
<feGaussianBlur in="BackgroundImageFix" stdDeviation="10"/>
<feComposite in2="SourceAlpha" operator="in" result="effect1_backgroundBlur_2032_5831"/>
<feColorMatrix in="SourceAlpha" type="matrix" values="0 0 0 0 0 0 0 0 0 0 0 0 0 0 0 0 0 0 127 0" result="hardAlpha"/>
<feOffset dy="10"/>
<feGaussianBlur stdDeviation="5"/>
<feComposite in2="hardAlpha" operator="out"/>
<feColorMatrix type="matrix" values="0 0 0 0 0 0 0 0 0 0 0 0 0 0 0 0 0 0 0.1 0"/>
<feBlend mode="normal" in2="effect1_backgroundBlur_2032_5831" result="effect2_dropShadow_2032_5831"/>
<feColorMatrix in="SourceAlpha" type="matrix" values="0 0 0 0 0 0 0 0 0 0 0 0 0 0 0 0 0 0 127 0" result="hardAlpha"/>
<feOffset dy="4"/>
<feGaussianBlur stdDeviation="2"/>
<feComposite in2="hardAlpha" operator="out"/>
<feColorMatrix type="matrix" values="0 0 0 0 0 0 0 0 0 0 0 0 0 0 0 0 0 0 0.05 0"/>
<feBlend mode="normal" in2="effect2_dropShadow_2032_5831" result="effect3_dropShadow_2032_5831"/>
<feColorMatrix in="SourceAlpha" type="matrix" values="0 0 0 0 0 0 0 0 0 0 0 0 0 0 0 0 0 0 127 0" result="hardAlpha"/>
<feOffset dy="1"/>
<feComposite in2="hardAlpha" operator="out"/>
<feColorMatrix type="matrix" values="0 0 0 0 0 0 0 0 0 0 0 0 0 0 0 0 0 0 0.05 0"/>
<feBlend mode="normal" in2="effect3_dropShadow_2032_5831" result="effect4_dropShadow_2032_5831"/>
<feBlend mode="normal" in="SourceGraphic" in2="effect4_dropShadow_2032_5831" result="shape"/>
</filter>
</defs>
</svg>
