<svg width="12" height="12" viewBox="0 0 12 12" fill="none" xmlns="http://www.w3.org/2000/svg">
<g clip-path="url(#clip0_2437_341)">
<path d="M5.6066 6.49725V3.81359C5.6066 3.36382 5.97186 2.999 6.42217 2.999C6.87248 2.999 7.23773 3.36382 7.23773 3.81359V6.49725V4.81309C7.23773 4.36332 7.60299 3.9985 8.0533 3.9985C8.50361 3.9985 8.86887 4.36332 8.86887 4.81309V6.49725H8.87387V5.76262C8.87387 5.34283 9.23912 4.998 9.68944 4.998C10.1347 4.998 10.5 5.34283 10.5 5.76262V8.25137C10.5 9.77561 9.19409 11 7.56796 11H6.87748C6.18701 11 5.57158 10.7701 5.08624 10.4253L1.74392 7.33683C1.41869 7.03198 1.41869 6.50725 1.74392 6.2024C2.06915 5.89755 2.55949 5.96252 2.88471 6.26737L3.97547 7.25687V1.76462C3.97047 1.34483 4.33572 1 4.78603 1C5.23634 1 5.6016 1.34483 5.6016 1.76462V6.49725" stroke="white" stroke-width="1.125" stroke-linecap="round" stroke-linejoin="round"/>
</g>
<defs>
<clipPath id="clip0_2437_341">
<rect width="12" height="12" fill="white"/>
</clipPath>
</defs>
</svg>
