<svg width="12" height="12" viewBox="0 0 12 12" fill="none" xmlns="http://www.w3.org/2000/svg">
<g clip-path="url(#clip0_2437_82)">
<path d="M6 11C8.76142 11 11 8.76142 11 6C11 3.23858 8.76142 1 6 1C3.23858 1 1 3.23858 1 6C1 8.76142 3.23858 11 6 11Z" stroke="white" stroke-width="1.125" stroke-miterlimit="10" stroke-linecap="round" stroke-linejoin="round"/>
<path d="M6.005 7C6.005 6.75 6.005 6.75 6.005 6.75C6.02 6.375 6.5 6.23 7.02 5.6C7.205 5.37 7.345 5.205 7.43 4.925C7.575 4.475 7.46 4.09 7.43 4.01C7.4 3.895 7.26 3.5 6.86 3.23C6.53 3.01 6.21 3 6.07 3C5.95 3 5.68 3 5.39 3.15C5.14 3.28 4.99 3.45 4.915 3.55C4.62 3.91 4.53 4.315 4.5 4.53" stroke="white" stroke-width="1.125" stroke-miterlimit="10" stroke-linecap="round" stroke-linejoin="round"/>
<path d="M5.99512 9H6.00512" stroke="white" stroke-width="1.125" stroke-miterlimit="10" stroke-linecap="round"/>
</g>
<defs>
<clipPath id="clip0_2437_82">
<rect width="12" height="12" fill="white"/>
</clipPath>
</defs>
</svg>
