<svg width="12" height="12" viewBox="0 0 12 12" fill="none" xmlns="http://www.w3.org/2000/svg">
<path d="M2.5 6.5C2.775 6.5 3 6.275 3 6C3 5.725 2.775 5.5 2.5 5.5C2.225 5.5 2 5.725 2 6C2 6.275 2.225 6.5 2.5 6.5Z" stroke="white" stroke-width="1.125" stroke-miterlimit="10" stroke-linecap="round" stroke-linejoin="round"/>
<path d="M9.5 6.5C9.775 6.5 10 6.275 10 6C10 5.725 9.775 5.5 9.5 5.5C9.225 5.5 9 5.725 9 6C9 6.275 9.225 6.5 9.5 6.5Z" stroke="white" stroke-width="1.125" stroke-miterlimit="10" stroke-linecap="round" stroke-linejoin="round"/>
<path d="M6 10C6.275 10 6.5 9.775 6.5 9.5C6.5 9.225 6.275 9 6 9C5.725 9 5.5 9.225 5.5 9.5C5.5 9.775 5.725 10 6 10Z" stroke="white" stroke-width="1.125" stroke-miterlimit="10" stroke-linecap="round" stroke-linejoin="round"/>
<path d="M6 3C6.275 3 6.5 2.775 6.5 2.5C6.5 2.225 6.275 2 6 2C5.725 2 5.5 2.225 5.5 2.5C5.5 2.775 5.725 3 6 3Z" stroke="white" stroke-width="1.125" stroke-miterlimit="10" stroke-linecap="round" stroke-linejoin="round"/>
<path d="M6 6.5C6.275 6.5 6.5 6.275 6.5 6C6.5 5.725 6.275 5.5 6 5.5C5.725 5.5 5.5 5.725 5.5 6C5.5 6.275 5.725 6.5 6 6.5Z" stroke="white" stroke-width="1.125" stroke-miterlimit="10" stroke-linecap="round" stroke-linejoin="round"/>
<path d="M2.5 10C2.775 10 3 9.775 3 9.5C3 9.225 2.775 9 2.5 9C2.225 9 2 9.225 2 9.5C2 9.775 2.225 10 2.5 10Z" stroke="white" stroke-width="1.125" stroke-miterlimit="10" stroke-linecap="round" stroke-linejoin="round"/>
<path d="M9.5 10C9.775 10 10 9.775 10 9.5C10 9.225 9.775 9 9.5 9C9.225 9 9 9.225 9 9.5C9 9.775 9.225 10 9.5 10Z" stroke="white" stroke-width="1.125" stroke-miterlimit="10" stroke-linecap="round" stroke-linejoin="round"/>
<path d="M2.5 3C2.775 3 3 2.775 3 2.5C3 2.225 2.775 2 2.5 2C2.225 2 2 2.225 2 2.5C2 2.775 2.225 3 2.5 3Z" stroke="white" stroke-width="1.125" stroke-miterlimit="10" stroke-linecap="round" stroke-linejoin="round"/>
<path d="M9.5 3C9.775 3 10 2.775 10 2.5C10 2.225 9.775 2 9.5 2C9.225 2 9 2.225 9 2.5C9 2.775 9.225 3 9.5 3Z" stroke="white" stroke-width="1.125" stroke-miterlimit="10" stroke-linecap="round" stroke-linejoin="round"/>
</svg>
