<svg width="81" height="19" viewBox="0 0 81 19" fill="none" xmlns="http://www.w3.org/2000/svg">
<path d="M9.18764 1.13036C9.27168 1.04671 9.38359 1 9.5 1C9.61641 1 9.72832 1.04671 9.81236 1.13036C10.8083 2.1215 12.226 2.65925 13.4368 2.94538C14.0359 3.08638 14.5704 3.16288 14.9542 3.20413C15.1529 3.22529 15.352 3.24054 15.5515 3.24988H15.5594C15.6773 3.25282 15.7893 3.3035 15.8716 3.39109C15.954 3.47869 16 3.59624 16 3.71864V7.37493C16 10.9363 14.1728 14.506 9.63469 15.9786C9.54699 16.0071 9.45301 16.0071 9.36531 15.9786C7.11269 15.2474 5.51297 13.9941 4.47947 12.4469C3.44922 10.903 3 9.09507 3 7.28118V3.71864C2.99997 3.59624 3.04603 3.47869 3.12836 3.39109C3.21068 3.3035 3.32273 3.25282 3.44056 3.24988H3.4485L3.47739 3.24876C3.66721 3.23911 3.85674 3.22411 4.04578 3.20376C4.55609 3.14898 5.06279 3.06257 5.56317 2.94501C6.77361 2.65925 8.19133 2.12187 9.18764 1.13036ZM12.6102 6.6823C12.6544 6.64012 12.69 6.58924 12.7149 6.53262C12.7399 6.476 12.7538 6.41478 12.7557 6.35254C12.7576 6.2903 12.7476 6.22828 12.7262 6.17011C12.7048 6.11194 12.6724 6.05878 12.631 6.01373C12.5896 5.96869 12.54 5.93267 12.485 5.90777C12.4301 5.88286 12.3709 5.86959 12.3109 5.86871C12.251 5.86783 12.1914 5.87937 12.1358 5.90264C12.0802 5.92592 12.0296 5.96048 11.987 6.00429L8.33361 9.62608L7.02061 8.26219C6.93595 8.17427 6.82112 8.12488 6.70139 8.12488C6.58166 8.12488 6.46683 8.17427 6.38217 8.26219C6.2975 8.35011 6.24994 8.46935 6.24994 8.59369C6.24994 8.71803 6.2975 8.83728 6.38217 8.9252L8.00717 10.6127C8.1805 10.7927 8.46072 10.7965 8.63803 10.6202L12.6102 6.6823Z" fill="white"/>
<path d="M27.2479 12.75V7.43182H28.0373V8.26278H28.1065C28.2173 7.97887 28.3962 7.75843 28.6432 7.60147C28.8902 7.44221 29.1868 7.36257 29.533 7.36257C29.8839 7.36257 30.1759 7.44221 30.409 7.60147C30.6444 7.75843 30.8279 7.97887 30.9595 8.26278H31.0149C31.1511 7.9881 31.3554 7.76998 31.6278 7.6084C31.9001 7.44451 32.2267 7.36257 32.6076 7.36257C33.0831 7.36257 33.472 7.51145 33.7744 7.80921C34.0768 8.10467 34.228 8.56516 34.228 9.1907V12.75H33.4109V9.1907C33.4109 8.7983 33.3035 8.51784 33.0889 8.34934C32.8742 8.18084 32.6214 8.09659 32.3306 8.09659C31.9567 8.09659 31.667 8.20969 31.4616 8.4359C31.2561 8.6598 31.1534 8.94371 31.1534 9.28764V12.75H30.3224V9.1076C30.3224 8.80522 30.2243 8.5617 30.0281 8.37704C29.8319 8.19007 29.5792 8.09659 29.2699 8.09659C29.0575 8.09659 28.859 8.15314 28.6744 8.26625C28.492 8.37935 28.3443 8.53631 28.2312 8.73713C28.1204 8.93564 28.065 9.16531 28.065 9.42614V12.75H27.2479ZM37.9517 12.8608C37.4393 12.8608 36.9973 12.7477 36.6257 12.5215C36.2563 12.293 35.9713 11.9744 35.7705 11.5659C35.572 11.155 35.4727 10.6772 35.4727 10.1325C35.4727 9.58771 35.572 9.1076 35.7705 8.69212C35.9713 8.27433 36.2506 7.94886 36.6084 7.71573C36.9684 7.48029 37.3885 7.36257 37.8687 7.36257C38.1456 7.36257 38.4192 7.40874 38.6892 7.50106C38.9593 7.59339 39.2051 7.74343 39.4267 7.95117C39.6483 8.1566 39.8249 8.42898 39.9565 8.76829C40.088 9.1076 40.1538 9.52539 40.1538 10.0217V10.3679H36.0544V9.66158H39.3228C39.3228 9.36151 39.2628 9.09375 39.1428 8.85831C39.0251 8.62287 38.8566 8.43706 38.6373 8.30087C38.4203 8.16468 38.1641 8.09659 37.8687 8.09659C37.5432 8.09659 37.2616 8.17738 37.0238 8.33896C36.7884 8.49822 36.6072 8.70597 36.4802 8.96218C36.3533 9.21839 36.2898 9.49308 36.2898 9.78622V10.2571C36.2898 10.6587 36.3591 10.9992 36.4976 11.2785C36.6384 11.5555 36.8334 11.7667 37.0827 11.9121C37.332 12.0552 37.6217 12.1268 37.9517 12.1268C38.1664 12.1268 38.3603 12.0968 38.5334 12.0368C38.7089 11.9744 38.86 11.8821 38.987 11.7598C39.1139 11.6351 39.212 11.4805 39.2813 11.2958L40.0707 11.5174C39.9876 11.7852 39.848 12.0206 39.6518 12.2237C39.4556 12.4245 39.2132 12.5815 38.9247 12.6946C38.6361 12.8054 38.3118 12.8608 37.9517 12.8608ZM41.3968 12.75V7.43182H42.1862V8.23509H42.2416C42.3386 7.97195 42.514 7.75843 42.7679 7.59455C43.0218 7.43066 43.308 7.34872 43.6266 7.34872C43.6866 7.34872 43.7616 7.34988 43.8516 7.35218C43.9416 7.35449 44.0097 7.35795 44.0559 7.36257V8.19354C44.0282 8.18661 43.9647 8.17622 43.8655 8.16238C43.7685 8.14622 43.6658 8.13814 43.5573 8.13814C43.2988 8.13814 43.068 8.19238 42.8648 8.30087C42.664 8.40705 42.5047 8.55478 42.387 8.74405C42.2716 8.93102 42.2139 9.14453 42.2139 9.38459V12.75H41.3968ZM45.8416 5.65909V12.75H45.0245V5.65909H45.8416ZM47.3382 12.75V7.43182H48.1553V12.75H47.3382ZM47.7537 6.54545C47.5944 6.54545 47.4571 6.49121 47.3417 6.38272C47.2286 6.27424 47.172 6.14382 47.172 5.99148C47.172 5.83913 47.2286 5.70872 47.3417 5.60023C47.4571 5.49174 47.5944 5.4375 47.7537 5.4375C47.913 5.4375 48.0491 5.49174 48.1622 5.60023C48.2777 5.70872 48.3354 5.83913 48.3354 5.99148C48.3354 6.14382 48.2777 6.27424 48.1622 6.38272C48.0491 6.49121 47.913 6.54545 47.7537 6.54545ZM50.469 9.55078V12.75H49.6519V7.43182H50.4413V8.26278H50.5106C50.6352 7.99272 50.8245 7.77575 51.0784 7.61186C51.3323 7.44567 51.6601 7.36257 52.0617 7.36257C52.4218 7.36257 52.7369 7.43643 53.0069 7.58416C53.277 7.72958 53.4871 7.95117 53.6371 8.24893C53.7871 8.54439 53.8621 8.91832 53.8621 9.37074V12.75H53.045V9.42614C53.045 9.00835 52.9365 8.68288 52.7196 8.44975C52.5026 8.21431 52.2048 8.09659 51.8263 8.09659C51.5655 8.09659 51.3323 8.15314 51.1269 8.26625C50.9238 8.37935 50.7633 8.54439 50.6456 8.76136C50.5279 8.97834 50.469 9.24148 50.469 9.55078ZM57.6681 7.43182V8.12429H54.9121V7.43182H57.6681ZM55.7154 6.15767H56.5325V11.2266C56.5325 11.4574 56.566 11.6305 56.6329 11.7459C56.7021 11.859 56.7899 11.9352 56.896 11.9744C57.0045 12.0114 57.1188 12.0298 57.2388 12.0298C57.3288 12.0298 57.4027 12.0252 57.4604 12.016C57.5181 12.0044 57.5643 11.9952 57.5989 11.9883L57.7651 12.7223C57.7097 12.7431 57.6324 12.7638 57.5331 12.7846C57.4339 12.8077 57.3081 12.8192 57.1557 12.8192C56.9249 12.8192 56.6987 12.7696 56.4771 12.6704C56.2578 12.5711 56.0755 12.4199 55.93 12.2168C55.7869 12.0137 55.7154 11.7575 55.7154 11.4482V6.15767ZM61.0699 12.8608C60.5575 12.8608 60.1155 12.7477 59.7438 12.5215C59.3745 12.293 59.0894 11.9744 58.8886 11.5659C58.6901 11.155 58.5909 10.6772 58.5909 10.1325C58.5909 9.58771 58.6901 9.1076 58.8886 8.69212C59.0894 8.27433 59.3687 7.94886 59.7265 7.71573C60.0866 7.48029 60.5067 7.36257 60.9868 7.36257C61.2638 7.36257 61.5373 7.40874 61.8074 7.50106C62.0775 7.59339 62.3233 7.74343 62.5449 7.95117C62.7665 8.1566 62.943 8.42898 63.0746 8.76829C63.2062 9.1076 63.272 9.52539 63.272 10.0217V10.3679H59.1725V9.66158H62.441C62.441 9.36151 62.381 9.09375 62.261 8.85831C62.1432 8.62287 61.9747 8.43706 61.7555 8.30087C61.5385 8.16468 61.2823 8.09659 60.9868 8.09659C60.6614 8.09659 60.3797 8.17738 60.142 8.33896C59.9066 8.49822 59.7254 8.70597 59.5984 8.96218C59.4715 9.21839 59.408 9.49308 59.408 9.78622V10.2571C59.408 10.6587 59.4772 10.9992 59.6157 11.2785C59.7565 11.5555 59.9516 11.7667 60.2009 11.9121C60.4502 12.0552 60.7398 12.1268 61.0699 12.1268C61.2846 12.1268 61.4785 12.0968 61.6516 12.0368C61.827 11.9744 61.9782 11.8821 62.1052 11.7598C62.2321 11.6351 62.3302 11.4805 62.3995 11.2958L63.1889 11.5174C63.1058 11.7852 62.9661 12.0206 62.7699 12.2237C62.5737 12.4245 62.3314 12.5815 62.0428 12.6946C61.7543 12.8054 61.43 12.8608 61.0699 12.8608ZM66.6755 12.8608C66.1769 12.8608 65.7476 12.7431 65.3875 12.5076C65.0274 12.2722 64.7504 11.9479 64.5565 11.5347C64.3626 11.1215 64.2657 10.6495 64.2657 10.1186C64.2657 9.57848 64.3649 9.10183 64.5634 8.68865C64.7642 8.27317 65.0435 7.94886 65.4013 7.71573C65.7614 7.48029 66.1815 7.36257 66.6616 7.36257C67.0356 7.36257 67.3726 7.43182 67.6726 7.57031C67.9727 7.70881 68.2185 7.9027 68.4101 8.15199C68.6017 8.40128 68.7206 8.69212 68.7667 9.0245H67.9496C67.8873 8.78214 67.7488 8.56747 67.5341 8.3805C67.3218 8.19123 67.0356 8.09659 66.6755 8.09659C66.3569 8.09659 66.0776 8.17969 65.8376 8.34588C65.5998 8.50977 65.414 8.74174 65.2801 9.04181C65.1486 9.33958 65.0828 9.68928 65.0828 10.0909C65.0828 10.5018 65.1474 10.8596 65.2767 11.1642C65.4082 11.4689 65.5929 11.7055 65.8307 11.874C66.0707 12.0425 66.3523 12.1268 66.6755 12.1268C66.8878 12.1268 67.0806 12.0898 67.2537 12.016C67.4268 11.9421 67.5734 11.8359 67.6934 11.6974C67.8134 11.5589 67.8988 11.3928 67.9496 11.1989H68.7667C68.7206 11.5128 68.6063 11.7955 68.424 12.0471C68.2439 12.2964 68.005 12.4949 67.7073 12.6427C67.4118 12.7881 67.0679 12.8608 66.6755 12.8608ZM70.7784 9.55078V12.75H69.9612V5.65909H70.7784V8.26278H70.8476C70.9723 7.9881 71.1592 7.76998 71.4085 7.6084C71.6601 7.44451 71.9948 7.36257 72.4126 7.36257C72.775 7.36257 73.0924 7.43528 73.3647 7.5807C73.6371 7.72381 73.8483 7.94425 73.9984 8.24201C74.1507 8.53746 74.2269 8.91371 74.2269 9.37074V12.75H73.4098V9.42614C73.4098 9.00373 73.3001 8.67711 73.0808 8.44629C72.8639 8.21316 72.5626 8.09659 72.1772 8.09659C71.9094 8.09659 71.6693 8.15314 71.457 8.26625C71.2469 8.37935 71.0807 8.54439 70.9584 8.76136C70.8384 8.97834 70.7784 9.24148 70.7784 9.55078Z" fill="white"/>
</svg>
