<svg width="12" height="12" viewBox="0 0 12 12" fill="none" xmlns="http://www.w3.org/2000/svg">
<g clip-path="url(#clip0_2437_76)">
<path d="M6.93505 2.445L6.78005 1.22C6.76505 1.095 6.66005 1 6.53005 1H4.97505C4.85005 1 4.74005 1.095 4.72505 1.22L4.59005 2.295C4.58005 2.385 4.51505 2.465 4.43005 2.495C4.01005 2.65 3.61005 2.89 3.26505 3.2L2.12505 2.72C2.01005 2.67 1.87505 2.715 1.81005 2.825L1.03005 4.175C0.970053 4.285 1.00005 4.425 1.10005 4.5L2.08505 5.245C1.98005 5.75 1.98005 6.265 2.08005 6.755H2.08505L1.10005 7.5C1.00005 7.575 0.970053 7.715 1.03505 7.825L1.81505 9.175C1.88005 9.285 2.01505 9.33 2.13005 9.28L3.27005 8.8L3.26505 8.805C3.45005 8.97 3.66005 9.12 3.88505 9.25C4.11005 9.38 4.34005 9.485 4.58005 9.565V9.555L4.73505 10.78C4.74005 10.905 4.85005 11 4.97505 11H6.53505C6.66005 11 6.76505 10.905 6.78505 10.78L6.92005 9.705C6.93005 9.615 6.99505 9.535 7.08005 9.505C7.50005 9.35 7.90005 9.11 8.24505 8.8L9.38505 9.28C9.50005 9.33 9.63505 9.285 9.70005 9.175L10.4801 7.825C10.5451 7.715 10.5151 7.575 10.4151 7.5L9.43005 6.755C9.53505 6.25 9.53505 5.735 9.43505 5.245H9.43005L10.4051 4.5C10.5051 4.425 10.5351 4.285 10.4701 4.175L9.69005 2.825C9.62505 2.715 9.49005 2.67 9.37505 2.72L8.24005 3.2L8.24505 3.195C8.06005 3.03 7.85005 2.88 7.62505 2.75C7.40005 2.62 7.17005 2.515 6.93005 2.435" stroke="white" stroke-width="1.125" stroke-miterlimit="10" stroke-linecap="round" stroke-linejoin="round"/>
<path d="M5.75488 8C6.85945 8 7.75488 7.10457 7.75488 6C7.75488 4.89543 6.85945 4 5.75488 4C4.65031 4 3.75488 4.89543 3.75488 6C3.75488 7.10457 4.65031 8 5.75488 8Z" stroke="white" stroke-width="1.125" stroke-miterlimit="10" stroke-linecap="round" stroke-linejoin="round"/>
</g>
<defs>
<clipPath id="clip0_2437_76">
<rect width="12" height="12" fill="white"/>
</clipPath>
</defs>
</svg>
