<svg width="33" height="74" viewBox="0 0 33 74" fill="none" xmlns="http://www.w3.org/2000/svg">
<rect x="7.875" y="8.125" width="17.25" height="36" rx="8.625" stroke="white" stroke-opacity="0.1" stroke-width="0.75"/>
<path d="M12.5 18.75L16.5 14.75L20.5 18.75" stroke="white" stroke-width="1.125" stroke-linecap="round" stroke-linejoin="round"/>
<rect x="7.5" y="25.75" width="18" height="0.75" fill="white" fill-opacity="0.1"/>
<path d="M12.5 33.5L16.5 37.5L20.5 33.5" stroke="white" stroke-width="1.125" stroke-linecap="round" stroke-linejoin="round"/>
<path d="M11.1296 62V61.2841L13.3445 58.9893C13.581 58.7401 13.7759 58.5217 13.9293 58.3342C14.0849 58.1445 14.201 57.9645 14.2777 57.794C14.3544 57.6236 14.3928 57.4425 14.3928 57.2507C14.3928 57.0334 14.3416 56.8459 14.2393 56.6882C14.1371 56.5284 13.9975 56.4059 13.8207 56.3207C13.6438 56.2333 13.4446 56.1896 13.223 56.1896C12.9886 56.1896 12.7841 56.2376 12.6094 56.3335C12.4347 56.4293 12.3004 56.5646 12.2067 56.7393C12.1129 56.9141 12.0661 57.1186 12.0661 57.353H11.1232C11.1232 56.9545 11.2148 56.6062 11.3981 56.3079C11.5813 56.0096 11.8327 55.7784 12.1523 55.6143C12.4719 55.4482 12.8352 55.3651 13.2422 55.3651C13.6534 55.3651 14.0156 55.4471 14.3288 55.6112C14.6442 55.7731 14.8903 55.9947 15.0671 56.2759C15.244 56.555 15.3324 56.8704 15.3324 57.2219C15.3324 57.4648 15.2866 57.7024 15.195 57.9347C15.1055 58.1669 14.9489 58.4258 14.7251 58.7113C14.5014 58.9947 14.1903 59.3388 13.7919 59.7436L12.4911 61.1051V61.1531H15.4379V62H11.1296ZM16.3711 60.7216V59.9226L19.1996 55.4545H19.8292V56.6307H19.4297L17.4066 59.8331V59.8842H21.2834V60.7216H16.3711ZM19.4744 62V60.4787L19.4808 60.1143V55.4545H20.4173V62H19.4744Z" fill="white" fill-opacity="0.7"/>
</svg>
