<svg width="53" height="57" viewBox="0 0 53 57" fill="none" xmlns="http://www.w3.org/2000/svg">
<g filter="url(#filter0_bddd_2032_5778)">
<path d="M15.8934 11.1066C20.8934 6.1066 23.3934 3.6066 26.5 3.6066C29.6066 3.6066 32.1066 6.1066 37.1066 11.1066L37.8934 11.8934C42.8934 16.8934 45.3934 19.3934 45.3934 22.5C45.3934 25.6066 42.8934 28.1066 37.8934 33.1066L37.1066 33.8934C32.1066 38.8934 29.6066 41.3934 26.5 41.3934C23.3934 41.3934 20.8934 38.8934 15.8934 33.8934L15.1066 33.1066C10.1066 28.1066 7.6066 25.6066 7.6066 22.5C7.6066 19.3934 10.1066 16.8934 15.1066 11.8934L15.8934 11.1066Z" fill="black" fill-opacity="0.6" shape-rendering="crispEdges"/>
<path d="M16.1586 11.3718C18.6661 8.86428 20.5206 7.01089 22.1342 5.77974C23.7392 4.55519 25.0617 3.9816 26.5 3.9816C27.9383 3.9816 29.2608 4.55519 30.8658 5.77973C32.4794 7.01089 34.3339 8.86427 36.8414 11.3718L37.6282 12.1586C40.1357 14.6661 41.9891 16.5206 43.2203 18.1342C44.4448 19.7392 45.0184 21.0617 45.0184 22.5C45.0184 23.9383 44.4448 25.2608 43.2203 26.8658C41.9891 28.4794 40.1357 30.3339 37.6282 32.8414L36.8414 33.6282C34.3339 36.1357 32.4794 37.9891 30.8658 39.2203C29.2608 40.4448 27.9383 41.0184 26.5 41.0184C25.0617 41.0184 23.7392 40.4448 22.1342 39.2203C20.5206 37.9891 18.6661 36.1357 16.1586 33.6282L15.3718 32.8414C12.8643 30.3339 11.0109 28.4794 9.77974 26.8658C8.55519 25.2608 7.9816 23.9383 7.9816 22.5C7.9816 21.0617 8.55519 19.7392 9.77973 18.1342C11.0109 16.5206 12.8643 14.6661 15.3718 12.1586L16.1586 11.3718Z" stroke="white" stroke-opacity="0.1" stroke-width="0.75" shape-rendering="crispEdges"/>
</g>
<path d="M29.7644 14C26.8652 14 24.5288 16.3364 24.5288 19.2356C24.5288 19.3894 24.553 19.5975 24.57 19.788L18.9659 25.3914C18.6598 25.6955 18.4169 26.0572 18.2511 26.4556C18.0853 26.854 18 27.2812 18 27.7127C18 28.1442 18.0853 28.5715 18.2511 28.9699C18.4169 29.3683 18.6598 29.7299 18.9659 30.0341C19.2701 30.3402 19.6317 30.5831 20.0301 30.7489C20.4285 30.9147 20.8558 31 21.2873 31C21.7188 31 22.146 30.9147 22.5444 30.7489C22.9428 30.5831 23.3045 30.3402 23.6086 30.0341L29.212 24.43C29.4018 24.447 29.6112 24.4712 29.7644 24.4712C32.6636 24.4712 35 22.1348 35 19.2356C35.0034 18.392 34.7922 17.5614 34.3861 16.822L33.9771 16.0655L33.3638 16.6793L30.5412 19.4804L29.5189 18.4581L32.32 15.6362L32.9352 15.0223L32.178 14.6133C31.4383 14.208 30.6078 13.997 29.7644 14ZM29.7644 15.3089C30.0824 15.3089 30.3193 15.4464 30.6021 15.5138L28.1282 17.9876L27.657 18.4588L28.1282 18.9084L30.0916 20.8718L30.5418 21.343L31.0117 20.8718L33.4869 18.3979C33.5543 18.6807 33.6911 18.9176 33.6911 19.2356C33.6911 21.4411 31.9699 23.1623 29.7644 23.1623C29.5026 23.1623 29.2932 23.1623 29.1295 23.1211L28.7827 23.019L28.517 23.2854L22.6878 29.1145C21.8828 29.9195 20.6917 29.9195 19.8868 29.1145L19.8658 29.0936C19.0805 28.2886 19.087 27.1106 19.8854 26.3122L25.7146 20.4837L25.981 20.218L25.8776 19.8711C25.8383 19.7075 25.837 19.4981 25.837 19.2363C25.837 17.0308 27.5589 15.3089 29.7644 15.3089Z" fill="white"/>
<defs>
<filter id="filter0_bddd_2032_5778" x="-7.39343" y="-11.3934" width="67.7869" height="67.7869" filterUnits="userSpaceOnUse" color-interpolation-filters="sRGB">
<feFlood flood-opacity="0" result="BackgroundImageFix"/>
<feGaussianBlur in="BackgroundImageFix" stdDeviation="7.5"/>
<feComposite in2="SourceAlpha" operator="in" result="effect1_backgroundBlur_2032_5778"/>
<feColorMatrix in="SourceAlpha" type="matrix" values="0 0 0 0 0 0 0 0 0 0 0 0 0 0 0 0 0 0 127 0" result="hardAlpha"/>
<feOffset dy="7.5"/>
<feGaussianBlur stdDeviation="3.75"/>
<feComposite in2="hardAlpha" operator="out"/>
<feColorMatrix type="matrix" values="0 0 0 0 0 0 0 0 0 0 0 0 0 0 0 0 0 0 0.1 0"/>
<feBlend mode="normal" in2="effect1_backgroundBlur_2032_5778" result="effect2_dropShadow_2032_5778"/>
<feColorMatrix in="SourceAlpha" type="matrix" values="0 0 0 0 0 0 0 0 0 0 0 0 0 0 0 0 0 0 127 0" result="hardAlpha"/>
<feOffset dy="3"/>
<feGaussianBlur stdDeviation="1.5"/>
<feComposite in2="hardAlpha" operator="out"/>
<feColorMatrix type="matrix" values="0 0 0 0 0 0 0 0 0 0 0 0 0 0 0 0 0 0 0.05 0"/>
<feBlend mode="normal" in2="effect2_dropShadow_2032_5778" result="effect3_dropShadow_2032_5778"/>
<feColorMatrix in="SourceAlpha" type="matrix" values="0 0 0 0 0 0 0 0 0 0 0 0 0 0 0 0 0 0 127 0" result="hardAlpha"/>
<feOffset dy="0.75"/>
<feComposite in2="hardAlpha" operator="out"/>
<feColorMatrix type="matrix" values="0 0 0 0 0 0 0 0 0 0 0 0 0 0 0 0 0 0 0.05 0"/>
<feBlend mode="normal" in2="effect3_dropShadow_2032_5778" result="effect4_dropShadow_2032_5778"/>
<feBlend mode="normal" in="SourceGraphic" in2="effect4_dropShadow_2032_5778" result="shape"/>
</filter>
</defs>
</svg>
