<svg xmlns="http://www.w3.org/2000/svg" width="28" height="33" fill="none" xmlns:v="https://vecta.io/nano"><style><![CDATA[.B{stroke:#fff}.C{stroke-width:1.125}.D{stroke-miterlimit:10}.E{stroke-linejoin:round}.F{stroke-linecap:round}]]></style><g filter="url(#A)" class="B C D E"><g clip-path="url(#B)"><path d="M15.333 11.25h-6" class="F"/><path d="M19.333 11.25h-2" class="F"/><path d="M19.333 7.75h-6" class="F"/><path d="M11.333 7.75h-2" class="F"/><path d="M19.333 14.75h-6" class="F"/><path d="M11.333 14.75h-2" class="F"/><path d="M16.333 12.25a1 1 0 1 0 0-2 1 1 0 1 0 0 2z"/><path d="M12.333 8.75a1 1 0 1 0 0-2 1 1 0 1 0 0 2z"/><path d="M12.333 15.75a1 1 0 1 0 0-2 1 1 0 1 0 0 2z"/></g></g><defs><filter id="A" x="-11.167" y="-14.25" width="51" height="51" filterUnits="userSpaceOnUse" color-interpolation-filters="sRGB"><feFlood flood-opacity="0"/><feGaussianBlur stdDeviation="7.5"/><feComposite in2="SourceAlpha" operator="in" result="B"/><feColorMatrix in="SourceAlpha" values="0 0 0 0 0 0 0 0 0 0 0 0 0 0 0 0 0 0 127 0" result="C"/><feOffset dy="7.5"/><feGaussianBlur stdDeviation="3.75"/><feComposite in2="C" operator="out"/><feColorMatrix values="0 0 0 0 0 0 0 0 0 0 0 0 0 0 0 0 0 0 0.1 0"/><feBlend in2="B" result="D"/><feColorMatrix in="SourceAlpha" values="0 0 0 0 0 0 0 0 0 0 0 0 0 0 0 0 0 0 127 0" result="C"/><feOffset dy="3"/><feGaussianBlur stdDeviation="1.5"/><feComposite in2="C" operator="out"/><feColorMatrix values="0 0 0 0 0 0 0 0 0 0 0 0 0 0 0 0 0 0 0.05 0"/><feBlend in2="D" result="E"/><feColorMatrix in="SourceAlpha" values="0 0 0 0 0 0 0 0 0 0 0 0 0 0 0 0 0 0 127 0" result="C"/><feOffset dy="0.75"/><feComposite in2="C" operator="out"/><feColorMatrix values="0 0 0 0 0 0 0 0 0 0 0 0 0 0 0 0 0 0 0.05 0"/><feBlend in2="E"/><feBlend in="SourceGraphic"/></filter><clipPath id="B"><path fill="#fff" transform="translate(8.333 5.25)" d="M0 0h12v12H0z"/></clipPath></defs></svg>