<svg xmlns="http://www.w3.org/2000/svg" width="20" height="20" fill="none" xmlns:v="https://vecta.io/nano"><path d="M18.333 0H1.667C1.225 0 .801.176.488.488S0 1.225 0 1.667v16.667c0 .442.176.866.488 1.178S1.225 20 1.667 20h16.667c.442 0 .866-.176 1.178-.488s.488-.736.488-1.178V1.667c0-.442-.176-.866-.488-1.179S18.775 0 18.333 0zM5 13.333c-.165 0-.326-.049-.463-.14s-.244-.222-.307-.374-.08-.32-.047-.481.112-.31.228-.427.265-.196.427-.228.329-.016.481.047.282.17.374.307.14.298.14.463c0 .221-.088.433-.244.589s-.368.244-.589.244zM18.333 5h-1.82a2.5 2.5 0 0 0-2.78-1.631 2.5 2.5 0 0 0-2.077 2.464 2.5 2.5 0 0 0 2.077 2.464 2.5 2.5 0 0 0 2.78-1.631h1.82V10H15v1.667h3.333v1.667h-1.667V15h1.667v3.333h-6.667v-.987a2.5 2.5 0 0 0 1.631-2.78 2.5 2.5 0 0 0-2.464-2.077 2.5 2.5 0 0 0-2.464 2.077A2.5 2.5 0 0 0 10 17.347v.987H5.833v-3.487a2.5 2.5 0 0 0 1.631-2.78A2.5 2.5 0 0 0 5 9.99a2.5 2.5 0 0 0-2.464 2.077 2.5 2.5 0 0 0 1.631 2.78v3.487h-2.5V1.667H5v5h1.667v-5h1.667V10H10V1.667h8.333V5zM15 5.833c0 .165-.049.326-.14.463s-.222.244-.374.307-.32.08-.482.047-.31-.112-.427-.228-.196-.265-.228-.427-.016-.329.048-.481a.83.83 0 0 1 .307-.374c.137-.092.298-.14.463-.14.221 0 .433.088.589.244s.244.368.244.589z" fill="#fff"/></svg>