<svg xmlns="http://www.w3.org/2000/svg" width="22" height="18" fill="none" xmlns:v="https://vecta.io/nano"><path fill-rule="evenodd" d="M11.226 1.5c-2.75 0-4.964 2.2-4.964 4.897 0 .462.065.909.185 1.331a5 5 0 0 1 1.383.64.75.75 0 0 1 .343.477.75.75 0 0 1-.106.578.75.75 0 0 1-.49.324.75.75 0 0 1-.573-.129 3.54 3.54 0 0 0-1.967-.589c-1.961 0-3.536 1.57-3.536 3.486S3.075 16 5.036 16h10C17.786 16 20 13.8 20 11.103c0-2.137-1.39-3.962-3.338-4.628a5.02 5.02 0 0 0-1.626-.27 5.04 5.04 0 0 0-1.658.28.75.75 0 0 1-.941-.466.75.75 0 0 1 .447-.95c.97-.339 2.006-.443 3.024-.305A4.96 4.96 0 0 0 11.226 1.5zm6.355 3.721C17.022 2.244 14.384 0 11.226 0 7.664 0 4.762 2.856 4.762 6.397a6.34 6.34 0 0 0 .102 1.135C2.17 7.622 0 9.81 0 12.515 0 15.276 2.263 17.5 5.036 17.5h10c3.561 0 6.464-2.856 6.464-6.397 0-2.644-1.619-4.905-3.919-5.882z" fill="#fff"/></svg>