<svg xmlns="http://www.w3.org/2000/svg" width="26" height="20" fill="none" xmlns:v="https://vecta.io/nano"><path d="M9.812 18.667H6.417c-1.75 0-3.29-.583-4.538-1.832C.63 15.61 0 14.105 0 12.343c0-1.517.455-2.87 1.365-4.06a6.12 6.12 0 0 1 3.593-2.275c.49-1.785 1.458-3.232 2.917-4.34C9.333.583 10.99 0 12.833 0c2.275 0 4.212.793 5.787 2.38C20.207 3.955 21 5.892 21 8.167c1.342.152 2.462.735 3.337 1.75.747.852 1.167 1.82 1.283 2.917h-2.333a2.74 2.74 0 0 0-.805-1.482 2.77 2.77 0 0 0-2.065-.852h-1.75V8.167c0-1.61-.583-2.987-1.703-4.13a5.67 5.67 0 0 0-4.13-1.703c-1.61 0-2.987.583-4.13 1.703C7.583 5.18 7 6.557 7 8.167h-.583c-1.132 0-2.088.397-2.882 1.202-.805.793-1.202 1.75-1.202 2.882s.397 2.1 1.202 2.917a3.94 3.94 0 0 0 2.882 1.167h2.917c0 .84.175 1.622.478 2.333zm15.855-3.5V17.5h-2.333v2.333H21V17.5h-2.567c-.467 1.4-1.75 2.333-3.267 2.333-1.983 0-3.5-1.517-3.5-3.5s1.517-3.5 3.5-3.5c1.517 0 2.8.933 3.267 2.333h7.233zm-9.333 1.167a1.17 1.17 0 0 0-1.167-1.167A1.17 1.17 0 0 0 14 16.333a1.17 1.17 0 0 0 1.167 1.167 1.17 1.17 0 0 0 1.167-1.167z" fill="#fff"/></svg>