<svg xmlns="http://www.w3.org/2000/svg" width="12" height="12" fill="none" xmlns:v="https://vecta.io/nano"><g clip-path="url(#A)"><path d="M1.617 5.667c-.341 0-.617.231-.617.518v3.797c0 .287.275.518.617.518h6.988c.341 0 .617-.231.617-.518V7.779 6.185c0-.287-.275-.518-.617-.518H1.617z" stroke="#fff" stroke-width="1.125" stroke-miterlimit="10" stroke-linejoin="round"/><g fill="#fff"><path d="M8.605 5.667v.563-.562zm.617.518h.563-.562zm1.251-.071l.495.267h0l-.495-.267zm-6.84-4.408l-.495-.267h0l.495.267zm.759-.125l-.243.508h0l.243-.508zm6.229 2.978l.243-.508h0l-.243.508zm.34.65l-.495-.267h0l.495.267zm-9.176-.086l.495.267h0l-.495-.267zm8.454 1.421l-.243.507.483.231.255-.471-.495-.267zM2.911 3.041l-.495-.267-.281.52.533.255.243-.508zM1.809 5.667l-.474.303.166.259h.308v-.562zm7.412 2.762h-.562v2.224l1.057-1.957-.495-.267zm-.022-2.382l-.535.175.535-.175zm1.516-.441L3.386 2.103l-.485 1.015 7.329 3.503.485-1.015zM3.638 2.878l.489-.905-.99-.535-.489.905.99.535zm.489-.905c-.022.041-.051.066-.071.079s-.029.012-.023.011.02-.002.042.001a.27.27 0 0 1 .074.024l.485-1.015C4.387.955 4.11.911 3.85.953s-.55.184-.713.485l.99.535zm.022.115l6.23 2.978.485-1.015-6.229-2.978-.485 1.015zm6.23 2.978c.058.028.074.057.072.052s-.011-.022-.012-.056.006-.08.029-.121l.99.535c.167-.309.118-.637-.009-.879s-.337-.428-.584-.546l-.485 1.015zm.088-.124l-.489.905.99.535.489-.905-.99-.535zm-8.186.449l1.358-2.513-.99-.535-1.358 2.513.99.535zm7.697.455l-.233.431.99.535.233-.431-.99-.535zM3.406 3.309l.233-.431-.99-.535-.233.431.99.535zM2.283 5.364c-.001.023-.002.026-.003.027l-.99-.535c-.2.37-.161.793.045 1.115l.947-.607zm6.376.821v2.244h1.125V6.185H8.659zm1.319-.339L8.726 8.162l.99.535 1.251-2.315-.99-.535zm-8.168.384h6.595V5.105H1.809V6.23zm6.595 0h.2V5.105h-.2V6.23zm.243-1.07L3.153 2.534l-.485 1.015 5.494 2.626.485-1.015zm1.835.877l-1.04-.497-.485 1.015 1.04.497.485-1.015zm-1.878.193c.037 0 .061.011.071.017s-.002.003-.011-.025l1.069-.35c-.162-.495-.652-.768-1.129-.768V6.23zm.06-.008a.12.12 0 0 1-.006-.037h1.125c0-.108-.017-.214-.05-.313l-1.069.35z"/><path d="M8.604 5.667v.563-.562zm1.868.446l.495.267a.56.56 0 0 0-.252-.775l-.243.508zM3.143 2.611l.243-.507c-.271-.129-.595-.024-.737.24l.495.267zm7.096 3.934l-.243.508.483.231.255-.471-.495-.267zM2.911 3.041l-.495-.267-.281.52.533.255.243-.508zm5.494 2.626l-.243.507.115.055h.128v-.562zm.795.38l-.535.175.075.229.217.104.243-.508zm1.516-.441L3.386 2.103l-.485 1.015 7.329 3.503.485-1.015zm-.738.24l-.233.431.99.535.233-.431-.99-.535zM3.406 3.309l.233-.431-.99-.535-.233.431.99.535zM8.404 6.23h.2V5.105h-.2V6.23zm.243-1.07L3.153 2.534l-.485 1.015 5.494 2.626.485-1.015zm1.835.877l-1.04-.497-.485 1.015 1.04.497.485-1.015zm-1.878.193c.037 0 .061.011.071.017s-.002.003-.011-.025l1.069-.35c-.162-.495-.652-.768-1.129-.768V6.23z"/><path d="M8.605 5.667v.563-.562zm.617.518h.563-.562zM1.785 5.124l.495.267h0l-.495-.267zm8.454 1.421l.495.267.281-.52-.533-.255-.243.508zM2.911 3.041l.243-.508-.483-.231-.254.471.495.267zM1.809 5.667l-.474.303.166.259h.308v-.562zm7.412 2.762h-.562v2.224l1.057-1.957-.495-.267zm-.022-2.382l-.535.175.535-.175zm-6.916-.683c-.001.023-.002.026-.003.027l-.99-.535c-.2.37-.161.793.045 1.115l.947-.607zm6.376.821v2.244h1.125V6.185H8.659zm-6.849.045h6.595V5.105H1.809V6.23zm6.595 0h.2V5.105h-.2V6.23zm.243-1.07L3.153 2.534l-.485 1.015 5.494 2.626.485-1.015zm1.835.877l-1.04-.497-.485 1.015 1.04.497.485-1.015zm-1.878.193c.037 0 .061.011.071.017s-.002.003-.011-.025l1.069-.35c-.162-.495-.652-.768-1.129-.768V6.23zm.06-.008a.12.12 0 0 1-.006-.037h1.125c0-.108-.017-.214-.05-.313l-1.069.35zM2.416 2.774L1.291 4.856l.99.535 1.125-2.082-.99-.535zm7.329 3.503L8.726 8.162l.99.535 1.018-1.885-.99-.535z"/></g><g stroke="#fff" stroke-width="1.125"><path d="M10.472 6.114L3.143 2.611l.489-.905c.116-.215.455-.27.759-.125l6.23 2.978c.304.145.456.436.34.65l-.489.905z" stroke-miterlimit="10" stroke-linejoin="round"/><path d="M3.451 7.842H2.66c-.207 0-.375-.168-.375-.375v-.217c0-.207.168-.375.375-.375h.791c.207 0 .375.168.375.375v.217c0 .207-.168.375-.375.375z"/><path d="M2.285 9.292h.514m5.138 0H7.68m-1.285 0h-.514m-1.285 0h-.514m1.541-2.175H7.68" stroke-linecap="round"/></g></g><defs><clipPath id="A"><path fill="#fff" d="M0 0h12v12H0z"/></clipPath></defs></svg>