<svg xmlns="http://www.w3.org/2000/svg" width="39" height="39" fill="none" xmlns:v="https://vecta.io/nano"><g filter="url(#A)"><rect x="10.333" y=".75" width="18" height="18" rx="9" fill="#000" fill-opacity=".6" shape-rendering="crispEdges"/><rect x="10.708" y="1.125" width="17.25" height="17.25" rx="8.625" stroke="#fff" stroke-opacity=".1" stroke-width=".75" shape-rendering="crispEdges"/><path d="M17.076 13.25H14.78V6.159h2.368c.695 0 1.291.142 1.79.426s.881.687 1.146 1.215.402 1.158.402 1.894-.135 1.373-.405 1.904a2.84 2.84 0 0 1-1.163 1.226c-.508.284-1.122.426-1.842.426zm-1.226-.935h1.167c.54 0 .989-.102 1.347-.305a1.92 1.92 0 0 0 .803-.89c.178-.39.267-.865.267-1.426s-.089-1.028-.267-1.416-.437-.682-.786-.883-.781-.301-1.298-.301H15.85v5.221zm7.036-6.156v7.091h-1.07V6.159h1.07z" fill="#fff"/></g><defs><filter id="A" x="-9.667" y="-19.25" width="58" height="58" filterUnits="userSpaceOnUse" color-interpolation-filters="sRGB"><feFlood flood-opacity="0"/><feGaussianBlur stdDeviation="10"/><feComposite in2="SourceAlpha" operator="in" result="B"/><feColorMatrix in="SourceAlpha" values="0 0 0 0 0 0 0 0 0 0 0 0 0 0 0 0 0 0 127 0" result="C"/><feOffset dy="10"/><feGaussianBlur stdDeviation="5"/><feComposite in2="C" operator="out"/><feColorMatrix values="0 0 0 0 0 0 0 0 0 0 0 0 0 0 0 0 0 0 0.1 0"/><feBlend in2="B" result="D"/><feColorMatrix in="SourceAlpha" values="0 0 0 0 0 0 0 0 0 0 0 0 0 0 0 0 0 0 127 0" result="C"/><feOffset dy="4"/><feGaussianBlur stdDeviation="2"/><feComposite in2="C" operator="out"/><feColorMatrix values="0 0 0 0 0 0 0 0 0 0 0 0 0 0 0 0 0 0 0.05 0"/><feBlend in2="D" result="E"/><feColorMatrix in="SourceAlpha" values="0 0 0 0 0 0 0 0 0 0 0 0 0 0 0 0 0 0 127 0" result="C"/><feOffset dy="1"/><feComposite in2="C" operator="out"/><feColorMatrix values="0 0 0 0 0 0 0 0 0 0 0 0 0 0 0 0 0 0 0.05 0"/><feBlend in2="E"/><feBlend in="SourceGraphic"/></filter></defs></svg>