<svg xmlns="http://www.w3.org/2000/svg" width="12" height="12" fill="none" xmlns:v="https://vecta.io/nano"><g clip-path="url(#A)"><path d="M5.607 6.497V3.814c0-.45.365-.815.816-.815s.816.365.816.815v2.684-1.684c0-.45.365-.815.816-.815s.816.365.816.815v1.684h.005v-.735c0-.42.365-.765.816-.765.445 0 .811.345.811.765v2.489C10.5 9.776 9.194 11 7.568 11h-.69c-.69 0-1.306-.23-1.791-.575L1.744 7.337a.78.78 0 0 1 0-1.134c.325-.305.816-.24 1.141.065l1.091.99V1.765c-.005-.42.36-.765.811-.765s.816.345.816.765v4.733" stroke="#fff" stroke-width="1.125" stroke-linecap="round" stroke-linejoin="round"/></g><defs><clipPath id="A"><path fill="#fff" d="M0 0h12v12H0z"/></clipPath></defs></svg>