<svg xmlns="http://www.w3.org/2000/svg" width="12" height="12" fill="none" xmlns:v="https://vecta.io/nano"><g clip-path="url(#A)" stroke="#fff" stroke-width="1.125" stroke-miterlimit="10"><g stroke-linejoin="round"><path d="M6 11A5 5 0 1 0 6 1a5 5 0 1 0 0 10z"/><g stroke-linecap="round"><path d="M6.005 7v-.25c.015-.375.495-.52 1.015-1.15.185-.23.325-.395.41-.675.145-.45.03-.835 0-.915a1.44 1.44 0 0 0-.57-.78A1.39 1.39 0 0 0 6.07 3c-.12 0-.39 0-.68.15a1.4 1.4 0 0 0-.475.4c-.295.36-.385.765-.415.98"/></g></g><path d="M5.995 9h.01" stroke-linecap="round"/></g><defs><clipPath id="A"><path fill="#fff" d="M0 0h12v12H0z"/></clipPath></defs></svg>