<svg width="16" height="16" viewBox="0 0 16 16" fill="none" xmlns="http://www.w3.org/2000/svg">
<g clip-path="url(#clip0_2132_507)">
<path d="M12.8934 14.6666H3.10671C2.12671 14.6666 1.33337 13.8733 1.33337 12.8933V3.10665C1.33337 2.12665 2.12671 1.33331 3.10671 1.33331H12.8867C13.8734 1.33331 14.6667 2.12665 14.6667 3.10665V12.8866C14.6667 13.8733 13.8734 14.6666 12.8934 14.6666Z" stroke="white" stroke-width="1.5" stroke-miterlimit="10" stroke-linecap="round" stroke-linejoin="round"/>
<path d="M10.6667 7.99998C10.6667 9.47331 9.47337 10.6666 8.00004 10.6666C6.52671 10.6666 5.33337 9.47331 5.33337 7.99998C5.33337 6.52665 6.52671 5.33331 8.00004 5.33331C9.47337 5.33331 10.6667 6.52665 10.6667 7.99998Z" stroke="white" stroke-width="1.5" stroke-miterlimit="10" stroke-linecap="round" stroke-linejoin="round"/>
<path d="M12.6667 3.66665C12.6667 3.85331 12.52 3.99998 12.3333 3.99998C12.1467 3.99998 12 3.85331 12 3.66665C12 3.47998 12.1467 3.33331 12.3333 3.33331C12.52 3.33331 12.6667 3.47998 12.6667 3.66665Z" stroke="white" stroke-width="1.5" stroke-miterlimit="10" stroke-linecap="round" stroke-linejoin="round"/>
</g>
<defs>
<clipPath id="clip0_2132_507">
<rect width="16" height="16" fill="white"/>
</clipPath>
</defs>
</svg>
