<svg xmlns="http://www.w3.org/2000/svg" xmlns:xlink="http://www.w3.org/1999/xlink" width="1440" height="1294" fill="none" xmlns:v="https://vecta.io/nano"><path opacity=".1" transform="matrix(-.747729 .664004 .747729 .664004 1495.67 .799072)" fill="url(#A)" d="M0 0h1221.2v1H0z"/><path opacity=".1" transform="matrix(.747729 .664004 -.747729 .664004 -55.1619 .288086)" fill="url(#B)" d="M0 0h1219.54v1H0z"/><path opacity=".1" transform="matrix(0 1 1 0 1208 1.14453)" fill="url(#C)" d="M0 0h1292v1H0z"/><path opacity=".1" transform="rotate(90 233.087 1.145)" fill="url(#D)" d="M233.087 1.145h1292v1h-1292z"/><path opacity=".2" transform="matrix(-.747729 .664004 .747729 .664004 1208.48 .538086)" fill="url(#E)" d="M0 0h1218.53v.695H0z"/><path opacity=".2" transform="matrix(.747729 .664004 -.747729 .664004 233 1)" fill="url(#F)" d="M0 0h1217.92v.915H0z"/><path opacity=".1" transform="matrix(-1 0 0 1 1800 474)" fill="url(#G)" d="M0 0h1998v1H0z"/><path opacity=".1" fill="url(#H)" d="M-198 1102h1998v1H-198z"/><defs><linearGradient id="A" x1="0" y1="0" x2="796.609" y2="0" xlink:href="#I"><stop stop-color="#d9d9d9"/><stop offset="1" stop-color="#d9d9d9" stop-opacity="0"/></linearGradient><linearGradient id="B" x1="0" y1="0" x2="795.526" y2="0" xlink:href="#I"><stop stop-color="#d9d9d9"/><stop offset="1" stop-color="#d9d9d9" stop-opacity="0"/></linearGradient><linearGradient id="C" x1="0" y1="0" x2="842.795" y2="0" xlink:href="#I"><stop stop-color="#d9d9d9"/><stop offset="1" stop-color="#d9d9d9" stop-opacity="0"/></linearGradient><linearGradient id="D" x1="233.087" y1="1.145" x2="1075.88" y2="1.145" xlink:href="#I"><stop stop-color="#d9d9d9"/><stop offset="1" stop-color="#d9d9d9" stop-opacity="0"/></linearGradient><linearGradient id="E" x1="0" y1="0" x2="794.87" y2="0" xlink:href="#I"><stop stop-color="#d9d9d9"/><stop offset="1" stop-color="#d9d9d9" stop-opacity="0"/></linearGradient><linearGradient id="F" x1="0" y1="0" x2="794.472" y2="0" xlink:href="#I"><stop stop-color="#d9d9d9"/><stop offset="1" stop-color="#d9d9d9" stop-opacity="0"/></linearGradient><linearGradient id="G" x1="0" y1="0" x2="1303.33" y2="0" xlink:href="#I"><stop stop-color="#d9d9d9"/><stop offset="1" stop-color="#d9d9d9" stop-opacity=".5"/></linearGradient><linearGradient id="H" x1="-198" y1="1102" x2="1105.33" y2="1102" xlink:href="#I"><stop stop-color="#d9d9d9"/><stop offset="1" stop-color="#d9d9d9" stop-opacity=".5"/></linearGradient><linearGradient id="I" gradientUnits="userSpaceOnUse"/></defs></svg>