<svg xmlns="http://www.w3.org/2000/svg" xmlns:xlink="http://www.w3.org/1999/xlink" width="12" height="12" fill="none" xmlns:v="https://vecta.io/nano"><g stroke="#fff" stroke-width="1.125" stroke-miterlimit="10" stroke-linejoin="round"><use xlink:href="#B"/><use xlink:href="#B" x="7"/><use xlink:href="#B" x="3.5" y="3.5"/><path d="M6 3a.5.5 0 0 0 .5-.5.5.5 0 1 0-1 0A.5.5 0 0 0 6 3z"/><use xlink:href="#B" x="3.5"/><use xlink:href="#B" y="3.5"/><use xlink:href="#B" x="7" y="3.5"/><path d="M2.5 3a.5.5 0 1 0 0-1 .5.5 0 1 0 0 1zm7 0a.5.5 0 1 0-.5-.5.5.5 0 0 0 .5.5z"/></g><defs ><path id="B" d="M2.5 6.5a.5.5 0 1 0 0-1 .5.5 0 1 0 0 1z"/></defs></svg>