<svg xmlns="http://www.w3.org/2000/svg" width="81" height="19" fill="#fff" xmlns:v="https://vecta.io/nano"><path d="M9.188 1.13A.44.44 0 0 1 9.5 1c.116 0 .228.047.312.13.996.991 2.414 1.529 3.624 1.815.599.141 1.134.217 1.517.259l.597.046h.008c.118.003.23.054.312.141a.48.48 0 0 1 .128.328v3.656c0 3.561-1.827 7.131-6.365 8.604-.088.029-.182.029-.269 0-2.253-.731-3.852-1.985-4.886-3.532S3 9.095 3 7.281V3.719a.48.48 0 0 1 .128-.328.44.44 0 0 1 .312-.141h.008l.029-.001a10.77 10.77 0 0 0 .568-.045 12.44 12.44 0 0 0 1.517-.259c1.21-.286 2.628-.823 3.624-1.815zm3.423 5.552c.044-.042.08-.093.105-.15s.039-.118.041-.18a.49.49 0 0 0-.029-.182.47.47 0 0 0-.095-.156.45.45 0 0 0-.146-.106c-.055-.025-.114-.038-.174-.039s-.12.011-.175.034a.45.45 0 0 0-.149.102L8.334 9.626 7.021 8.262c-.085-.088-.199-.137-.319-.137a.44.44 0 0 0-.319.137.48.48 0 0 0 0 .663l1.625 1.688a.44.44 0 0 0 .631.008l3.972-3.938zm14.637 6.068V7.432h.789v.831h.069c.111-.284.29-.504.537-.661s.544-.239.89-.239.643.08.876.239.419.377.55.661h.055a1.55 1.55 0 0 1 .613-.654c.272-.164.599-.246.98-.246.476 0 .864.149 1.167.447s.454.756.454 1.381v3.559h-.817V9.191c0-.392-.107-.673-.322-.841s-.468-.253-.758-.253c-.374 0-.664.113-.869.339a1.21 1.21 0 0 0-.308.852v3.462h-.831V9.108c0-.302-.098-.546-.294-.731s-.449-.28-.758-.28a1.12 1.12 0 0 0-.596.17 1.28 1.28 0 0 0-.443.471 1.39 1.39 0 0 0-.166.689v3.324h-.817zm10.704.111c-.512 0-.954-.113-1.326-.339s-.654-.547-.855-.956-.298-.889-.298-1.433.099-1.025.298-1.44a2.35 2.35 0 0 1 .838-.976 2.25 2.25 0 0 1 1.26-.353 2.52 2.52 0 0 1 .821.138 2.02 2.02 0 0 1 .737.45c.221.208.398.478.53.817s.197.757.197 1.253v.346h-4.099v-.706h3.268c0-.3-.06-.568-.18-.803s-.286-.421-.505-.557-.473-.204-.769-.204c-.325 0-.607.081-.845.242a1.59 1.59 0 0 0-.544.623 1.83 1.83 0 0 0-.19.824v.471c0 .402.069.742.208 1.021a1.48 1.48 0 0 0 .585.634c.249.146.539.215.869.215a1.77 1.77 0 0 0 .582-.09 1.25 1.25 0 0 0 .454-.277 1.26 1.26 0 0 0 .294-.464l.789.222a1.75 1.75 0 0 1-.419.706 2.04 2.04 0 0 1-.727.471c-.288.113-.613.166-.973.166zm3.445-.111V7.432h.789v.803h.055c.097-.263.272-.477.526-.641a1.55 1.55 0 0 1 .859-.246l.225.003.204.01v.831a2.42 2.42 0 0 0-.19-.031c-.097-.016-.2-.024-.308-.024a1.44 1.44 0 0 0-.692.163c-.203.109-.36.254-.478.443s-.173.4-.173.641v3.365h-.817zm4.445-7.091v7.091h-.817V5.659h.817zm1.497 7.091V7.432h.817v5.318h-.817zm.416-6.205a.58.58 0 0 1-.412-.163c-.113-.108-.17-.239-.17-.391s.057-.283.17-.391a.58.58 0 0 1 .412-.163.57.57 0 0 1 .408.163c.116.108.173.239.173.391a.52.52 0 0 1-.173.391.57.57 0 0 1-.408.163zM50.47 9.55v3.199h-.817V7.432h.789v.831h.069a1.52 1.52 0 0 1 .568-.651c.254-.166.582-.249.983-.249.36 0 .675.074.945.222s.48.367.63.665.225.669.225 1.122v3.379h-.817V9.426c0-.418-.108-.743-.325-.976s-.515-.353-.893-.353c-.261 0-.494.057-.699.17s-.364.278-.481.495-.177.48-.177.789zm7.199-2.119v.692h-2.756v-.692h2.756zm-1.953-1.274h.817v5.069c0 .231.034.404.1.519a.52.52 0 0 0 .263.228c.108.037.223.055.343.055.09 0 .164-.005.222-.014l.139-.028.166.734a1.66 1.66 0 0 1-.232.062c-.099.023-.225.035-.377.035a1.65 1.65 0 0 1-.679-.149 1.35 1.35 0 0 1-.547-.454c-.143-.203-.215-.459-.215-.769V6.158zm5.354 6.703c-.512 0-.954-.113-1.326-.339s-.654-.547-.855-.956-.298-.889-.298-1.433.099-1.025.298-1.44a2.35 2.35 0 0 1 .838-.976 2.25 2.25 0 0 1 1.26-.353 2.52 2.52 0 0 1 .821.138 2.02 2.02 0 0 1 .737.45c.221.208.398.478.53.817s.197.757.197 1.253v.346h-4.099v-.706h3.269c0-.3-.06-.568-.18-.803a1.37 1.37 0 0 0-.506-.557c-.22-.136-.473-.204-.769-.204-.325 0-.607.081-.845.242a1.59 1.59 0 0 0-.544.623 1.83 1.83 0 0 0-.19.824v.471c0 .402.069.742.208 1.021a1.48 1.48 0 0 0 .585.634c.249.146.539.215.869.215a1.77 1.77 0 0 0 .582-.09 1.25 1.25 0 0 0 .454-.277 1.26 1.26 0 0 0 .294-.464l.789.222a1.75 1.75 0 0 1-.419.706c-.196.201-.438.358-.727.471s-.613.166-.973.166zm5.606 0c-.499 0-.928-.118-1.288-.353a2.3 2.3 0 0 1-.831-.973c-.194-.413-.291-.885-.291-1.416 0-.54.099-1.017.298-1.43s.48-.74.838-.973a2.25 2.25 0 0 1 1.26-.353c.374 0 .711.069 1.011.208a1.93 1.93 0 0 1 .737.582 1.82 1.82 0 0 1 .357.873h-.817c-.062-.242-.201-.457-.416-.644s-.498-.284-.859-.284c-.319 0-.598.083-.838.249s-.424.396-.557.696-.197.647-.197 1.049c0 .411.065.769.194 1.073a1.63 1.63 0 0 0 .554.71c.238.169.522.253.845.253a1.46 1.46 0 0 0 .578-.111 1.19 1.19 0 0 0 .44-.319 1.22 1.22 0 0 0 .256-.498h.817a1.88 1.88 0 0 1-.343.848c-.183.251-.419.448-.717.596a2.31 2.31 0 0 1-1.032.218zm4.103-3.31v3.199h-.817v-7.09h.817v2.604h.069a1.5 1.5 0 0 1 .561-.654c.249-.161.586-.246 1.004-.246.362 0 .68.073.952.218s.484.364.634.661.228.672.228 1.129v3.379h-.817V9.426c0-.422-.11-.749-.329-.98s-.518-.35-.904-.35c-.268 0-.508.057-.72.17a1.24 1.24 0 0 0-.499.495c-.12.217-.18.48-.18.789z"/></svg>