<svg xmlns="http://www.w3.org/2000/svg" xmlns:xlink="http://www.w3.org/1999/xlink" width="819" height="138" fill="none" xmlns:v="https://vecta.io/nano"><g opacity=".8" clip-path="url(#H)"><path d="M870.125 81.5L631.375 81.5L574.875 25L508.875 25" stroke="url(#B)" stroke-opacity=".05"/><path d="M870.125 81.5L631.375 81.5L574.875 25L508.875 25" stroke="url(#C)"/><path d="M-51.125 82L187.625 82L244.125 25.5L310.125 25.5" stroke="url(#D)" stroke-opacity=".05"/><path d="M-51.125 82L187.625 82L244.125 25.5L310.125 25.5" stroke="url(#E)"/><g opacity=".8"><mask id="A" fill="#fff"><path d="M0 0H819V138H0V0Z"/></mask><path d="M0 0H819V138H0V0Z" fill="url(#F)"/><path d="M0 1H819V-1H0V1Z" fill="url(#G)" mask="url(#A)"/></g></g><defs><linearGradient id="B" x1="509.125" y1="24.75" x2="875.125" y2="98.75" xlink:href="#I"><stop stop-color="#fff"/><stop offset="1" stop-color="#fff" stop-opacity="0"/></linearGradient><linearGradient id="C" x1="508.875" y1="53.25" x2="604.875" y2="53.25" xlink:href="#I"><stop stop-color="#c9ddfa" stop-opacity=".38"/><stop offset="1" stop-color="#fff" stop-opacity="0"/></linearGradient><linearGradient id="D" x1="309.875" y1="25.25" x2="-56.125" y2="99.25" xlink:href="#I"><stop stop-color="#fff"/><stop offset="1" stop-color="#fff" stop-opacity="0"/></linearGradient><linearGradient id="E" x1="310.125" y1="53.75" x2="214.125" y2="53.75" xlink:href="#I"><stop stop-color="#c9ddfa" stop-opacity=".38"/><stop offset="1" stop-color="#fff" stop-opacity="0"/></linearGradient><radialGradient id="F" cx="0" cy="0" r="1" gradientTransform="translate(410.034 -6.34132e-06) rotate(90) scale(69 409.5)" xlink:href="#I"><stop stop-color="#fff" stop-opacity=".05"/><stop offset="1" stop-color="#fff" stop-opacity="0"/></radialGradient><radialGradient id="G" cx="0" cy="0" r="1" gradientTransform="translate(409.81 -6.78419e-06) rotate(90) scale(58 344.217)" xlink:href="#I"><stop stop-color="#fff" stop-opacity=".4"/><stop offset="1" stop-color="#fff" stop-opacity="0"/></radialGradient><clipPath id="H"><path fill="#fff" d="M0 0h819v138H0z"/></clipPath><linearGradient id="I" gradientUnits="userSpaceOnUse"/></defs></svg>