<svg width="16" height="16" viewBox="0 0 24 24" fill="none" xmlns="http://www.w3.org/2000/svg">
<path d="M18.8057 24C18.6686 24.0008 18.5327 23.9745 18.4058 23.9227C18.2788 23.8709 18.1634 23.7946 18.066 23.6982L11.6797 17.3079L8.21047 22.5117C8.09999 22.6807 7.94268 22.814 7.7577 22.8953C7.57272 22.9767 7.36806 23.0025 7.16866 22.9696C6.97334 22.9406 6.79032 22.8567 6.64091 22.7277C6.49151 22.5987 6.38187 22.4299 6.32479 22.2411L0.0738999 1.42576C-0.000399633 1.23934 -0.0191717 1.03543 0.0198443 0.8386C0.0588603 0.641767 0.154001 0.460397 0.29381 0.31633C0.433618 0.172263 0.612134 0.071642 0.807861 0.0265821C1.00359 -0.0184778 1.20818 -0.00605488 1.397 0.0623551L22.2333 6.30695C22.4223 6.36398 22.5912 6.47351 22.7204 6.62276C22.8495 6.77202 22.9335 6.95486 22.9626 7.14998C22.9954 7.34918 22.9696 7.55363 22.8882 7.73842C22.8068 7.92322 22.6734 8.08037 22.5042 8.19074L17.2951 11.6565L23.6918 18.0364C23.7895 18.1331 23.867 18.2483 23.9199 18.3751C23.9728 18.5019 24 18.6379 24 18.7753C24 18.9127 23.9728 19.0488 23.9199 19.1756C23.867 19.3024 23.7895 19.4175 23.6918 19.5143L19.5246 23.6773C19.3365 23.8748 19.0784 23.9906 18.8057 24ZM18.8057 21.4917L21.504 18.7962L14.0446 11.3547L19.5142 7.71199L2.64718 2.65386L7.7104 19.5039L11.3568 14.0398L18.8057 21.4917Z" fill="white"/>
</svg>
