<svg xmlns="http://www.w3.org/2000/svg" width="24" height="24" fill="none" xmlns:v="https://vecta.io/nano"><circle cx="12" cy="12" r="11.5" stroke="#fff"/><path d="M8.316 17v-.895l3.361-3.679.974-1.123c.255-.322.444-.623.567-.905a2.19 2.19 0 0 0 .189-.895c0-.358-.086-.668-.258-.93s-.401-.464-.696-.607-.626-.214-.994-.214c-.391 0-.732.081-1.024.244s-.512.383-.671.671-.234.626-.234 1.014H8.355c0-.597.138-1.12.413-1.571s.65-.802 1.124-1.054 1.013-.378 1.606-.378 1.125.126 1.586.378.822.592 1.084 1.019.393.903.393 1.427a3.07 3.07 0 0 1-.204 1.099c-.133.355-.365.751-.696 1.188s-.784.965-1.367 1.591l-2.287 2.446v.079h4.733V17H8.316z" fill="#fff"/></svg>