<svg xmlns="http://www.w3.org/2000/svg" xmlns:xlink="http://www.w3.org/1999/xlink" width="12" height="12" fill="none" xmlns:v="https://vecta.io/nano"><g clip-path="url(#A)" stroke="#fff" stroke-width="1.125" stroke-miterlimit="10"><g stroke-linecap="round" stroke-linejoin="round"><path d="M10 5V3m0 6V7M2 5V3m0 6V7m3.295-1.705l-2.59-2.59m6.59 6.59l-2.59-2.59"/></g><use xlink:href="#B" stroke-linejoin="round"/><path d="M10 3a1 1 0 1 0 0-2 1 1 0 1 0 0 2zM2 7a1 1 0 1 0 0-2 1 1 0 1 0 0 2zm4 0a1 1 0 1 0 0-2 1 1 0 1 0 0 2zm4 0a1 1 0 1 0 0-2 1 1 0 1 0 0 2zm-8 4a1 1 0 1 0 0-2 1 1 0 1 0 0 2zm8 0a1 1 0 1 0 0-2 1 1 0 1 0 0 2zM6 3a1 1 0 1 0 0-2 1 1 0 1 0 0 2zm0 8a1 1 0 1 0 0-2 1 1 0 1 0 0 2z" stroke-linejoin="round"/></g><defs><clipPath id="A"><path fill="#fff" d="M0 0h12v12H0z"/></clipPath><path id="B" d="M2 3a1 1 0 1 0 0-2 1 1 0 1 0 0 2z"/></defs></svg>