<svg xmlns="http://www.w3.org/2000/svg" xmlns:xlink="http://www.w3.org/1999/xlink" fill="none" viewBox="0 0 140 140" xmlns:v="https://vecta.io/nano"><path d="M122.25 70c0 28.859-23.174 52.254-51.761 52.254S18.728 98.859 18.728 70s23.174-52.254 51.761-52.254S122.25 41.141 122.25 70z" stroke="#fff" stroke-dasharray="0.5 5" stroke-opacity=".2" stroke-width="5"/><use xlink:href="#E" fill="#fff" fill-opacity=".1"/><g filter="url(#A)" style="mix-blend-mode:plus-lighter"><use xlink:href="#E" fill="url(#B)"/></g><use xlink:href="#F" fill="url(#C)"/><use xlink:href="#F" stroke="#fff" stroke-opacity=".1"/><path d="m70.022 13.413c0-0.3156 0.256-0.5717 0.5716-0.5685 11.733 0.1173 23.15 3.8444 32.697 10.682 9.702 6.9482 16.985 16.76 20.827 28.058 3.841 11.298 4.049 23.515 0.594 34.937-3.399 11.24-10.178 21.154-19.407 28.399-0.249 0.195-0.608 0.148-0.8-0.102s-0.145-0.609 0.103-0.804c9.04-7.099 15.68-16.813 19.011-27.824 3.385-11.194 3.182-23.166-0.583-34.238-3.765-11.072-10.902-20.687-20.41-27.496-9.3526-6.6983-20.538-10.351-32.032-10.468-0.3156-0.0032-0.5716-0.2587-0.5716-0.5742z" stroke="url(#D)"/><defs><filter id="A" x="2.871" y="2.827" width="134.3" height="134.3" color-interpolation-filters="sRGB" filterUnits="userSpaceOnUse"><feFlood flood-opacity="0"/><feBlend in="SourceGraphic"/><feGaussianBlur stdDeviation="5"/></filter><radialGradient id="B" cx="0" cy="0" r="1" gradientTransform="matrix(-39.53434013613987,39.534340136139875,-39.534340136139875,-39.53434013613987,70.022,69.978)" gradientUnits="userSpaceOnUse"><stop stop-color="#fff" stop-opacity="0" offset=".392"/><stop stop-color="#fff" offset=".772"/><stop stop-color="#fff" stop-opacity="0" offset=".808"/></radialGradient><linearGradient id="C" x1="135.29" x2=".044" y1="92.819" y2="29.576" gradientUnits="userSpaceOnUse"><stop stop-color="#fff" offset="0"/><stop stop-color="#285299" offset=".75"/></linearGradient><linearGradient id="D" x1="130.39" x2="14.832" y1="53.804" y2="84.766" gradientUnits="userSpaceOnUse"><stop stop-color="#2737cf" stop-opacity="0" offset="0"/><stop stop-color="#bdfcfe" offset="1"/></linearGradient><path id="E" d="M84.81 125.17c-30.481 8.167-61.811-9.921-69.978-40.402s9.921-61.811 40.402-69.978 61.81 9.921 69.978 40.402-9.922 61.811-40.402 69.978zM55.973 17.55C27.017 25.309 9.832 55.073 17.591 84.029s37.523 46.14 66.479 38.381 46.14-37.522 38.382-66.479S84.93 9.79 55.973 17.549z"/><path id="F" d="M70.022 13.413c0-.316.256-.572.572-.569 11.733.117 23.15 3.844 32.697 10.682a57.14 57.14 0 0 1 21.421 62.995c-3.399 11.24-10.178 21.154-19.407 28.399-.249.195-.608.148-.8-.102s-.145-.609.103-.804c9.04-7.099 15.68-16.813 19.011-27.824a56 56 0 0 0-.583-34.238 55.99 55.99 0 0 0-20.41-27.496c-9.353-6.698-20.538-10.351-32.032-10.468-.316-.003-.572-.259-.572-.574z"/></defs></svg>