<svg xmlns="http://www.w3.org/2000/svg" width="64" height="64" fill="none" xmlns:v="https://vecta.io/nano"><path d="M32 4a4 4 0 0 1 4-4h24a4 4 0 0 1 4 4v56a4 4 0 0 1-4 4H36a4 4 0 0 1-4-4V4zm4 54a2 2 0 0 0 2 2 2 2 0 0 0 2-2 2 2 0 0 0-2-2 2 2 0 0 0-2 2zm8 0a2 2 0 0 0 2 2 2 2 0 0 0 2-2 2 2 0 0 0-2-2 2 2 0 0 0-2 2zM38 4a2 2 0 0 0-2 2 2 2 0 0 0 2 2h20a2 2 0 0 0 2-2 2 2 0 0 0-2-2H38zm-2 10a2 2 0 0 0 2 2h20a2 2 0 0 0 2-2 2 2 0 0 0-2-2H38a2 2 0 0 0-2 2zM6 8a6 6 0 0 0-6 6v28a6 6 0 0 0 6 6h18v8h-2a2 2 0 0 0-2 2 2 2 0 0 0 2 2h6V44H6a2 2 0 0 1-2-2V14a2 2 0 0 1 2-2h22V8H6z" fill="#fff"/></svg>