<svg xmlns="http://www.w3.org/2000/svg" width="64" height="64" fill="none" xmlns:v="https://vecta.io/nano"><path d="M35.313 58.781c.208.792.365 1.594.469 2.406l.219 2.5c2.667-.312 5.208-.937 7.625-1.875s4.656-2.135 6.719-3.594 3.937-3.146 5.625-5.063 3.125-4 4.312-6.25 2.104-4.625 2.75-7.125S64 34.688 64 32c0-2.937-.375-5.771-1.125-8.5a31.52 31.52 0 0 0-3.219-7.656 32.14 32.14 0 0 0-5-6.469 31.76 31.76 0 0 0-6.5-5c-2.396-1.396-4.937-2.469-7.625-3.219S35.001.021 32.001 0c-2.937 0-5.76.375-8.469 1.125s-5.26 1.833-7.656 3.25-4.552 3.083-6.469 5-3.594 4.083-5.031 6.5-2.51 4.958-3.219 7.625S.064 29 .001 32H2.22l.906-1.406c.312-.458.677-.896 1.094-1.313.125-1.812.448-3.573.969-5.281h38.28l.375 3.969L44 32l-.125 4-.406 4H32.001c0 .667-.052 1.333-.156 2l-.406 2h11.344l-1 3.906c-.417 1.417-.937 2.802-1.562 4.156s-1.344 2.625-2.156 3.813-1.729 2.156-2.75 2.906zM6.72 20a28.82 28.82 0 0 1 2.875-4.75c1.104-1.479 2.354-2.833 3.75-4.062s2.875-2.323 4.437-3.281 3.25-1.74 5.062-2.344c-.75 1.042-1.417 2.146-2 3.313l-1.594 3.594c-.479 1.229-.885 2.479-1.219 3.75L17.157 20H6.72zM32.001 4a5.21 5.21 0 0 1 2.875.844c.875.563 1.688 1.302 2.438 2.219s1.417 1.948 2 3.094l1.594 3.531c.479 1.208.864 2.354 1.156 3.438L42.782 20H21.22l.719-2.875 1.156-3.437c.458-1.187.979-2.354 1.562-3.5a18.2 18.2 0 0 1 2-3.125c.75-.937 1.573-1.677 2.469-2.219S30.98 4.021 32.001 4zm9.125 1.531a27.79 27.79 0 0 1 5.062 2.313 26.51 26.51 0 0 1 4.469 3.281c1.375 1.25 2.625 2.615 3.75 4.094S56.49 18.292 57.281 20H46.844L46 16.344a34.85 34.85 0 0 0-1.25-3.875L43.126 8.75a18.28 18.28 0 0 0-2-3.219zM60 32c0 2.771-.385 5.438-1.156 8H47.5l.375-3.969L48 32l-.125-4-.375-4h11.343C59.615 26.563 60 29.229 60 32zm-2.656 12c-.812 1.688-1.771 3.271-2.875 4.75a27.85 27.85 0 0 1-3.75 4.094 26.26 26.26 0 0 1-4.5 3.25 32.91 32.91 0 0 1-5.062 2.344 24.12 24.12 0 0 0 2-3.312l1.594-3.594c.479-1.229.885-2.479 1.219-3.75L46.875 44h10.468zM8.939 49.656c-1.354.688-2.583 1.531-3.687 2.531a15.54 15.54 0 0 0-2.812 3.375 17.33 17.33 0 0 0-1.812 4A14.29 14.29 0 0 0 .001 64h4c0-1.646.312-3.198.937-4.656a12.04 12.04 0 0 1 2.562-3.813c1.083-1.083 2.365-1.948 3.844-2.594A11.15 11.15 0 0 1 16.001 52c1.667 0 3.219.313 4.656.938s2.708 1.479 3.812 2.563a11.7 11.7 0 0 1 2.594 3.844A11.84 11.84 0 0 1 28.001 64h4c0-1.521-.208-2.99-.625-4.406a16.98 16.98 0 0 0-1.781-4.031c-.771-1.271-1.708-2.396-2.812-3.375a18.35 18.35 0 0 0-3.687-2.531 11.58 11.58 0 0 0 3.625-4.219c.854-1.687 1.281-3.5 1.281-5.437 0-1.646-.312-3.198-.937-4.656a12.04 12.04 0 0 0-2.562-3.813c-1.083-1.083-2.354-1.948-3.812-2.594s-3.021-.958-4.687-.937c-1.646 0-3.198.313-4.656.938A12.04 12.04 0 0 0 7.533 31.5c-1.083 1.083-1.948 2.365-2.594 3.844A11.15 11.15 0 0 0 4.001 40c0 1.917.427 3.719 1.281 5.406s2.073 3.104 3.656 4.25zM16.001 48c-1.104 0-2.135-.208-3.094-.625a8.52 8.52 0 0 1-2.562-1.719c-.75-.729-1.323-1.573-1.719-2.531s-.604-2-.625-3.125c0-1.104.208-2.135.625-3.094a8.52 8.52 0 0 1 1.719-2.562 7.48 7.48 0 0 1 2.531-1.719c.958-.396 2-.604 3.125-.625 1.104 0 2.135.208 3.094.625a8.52 8.52 0 0 1 2.563 1.719c.75.729 1.323 1.573 1.719 2.531s.604 2 .625 3.125c0 1.104-.208 2.135-.625 3.094a8.52 8.52 0 0 1-1.719 2.562 7.48 7.48 0 0 1-2.531 1.719c-.958.396-2 .604-3.125.625z" fill="#fff"/></svg>