<svg xmlns="http://www.w3.org/2000/svg" xmlns:xlink="http://www.w3.org/1999/xlink" width="150" height="150" fill="none" xmlns:v="https://vecta.io/nano"><path d="M37.946 15.612a70 70 0 0 0-22.334 96.442 70 70 0 0 0 43.596 31.141c18.086 4.189 37.096 1.021 52.847-8.807s26.953-25.509 31.141-43.595 1.021-37.096-8.807-52.847a70 70 0 0 0-96.442-22.334h0z" stroke="#fff" stroke-opacity=".1" stroke-width="8" stroke-linejoin="round" stroke-dasharray="0.5 5"/><g filter="url(#A)"><path d="M75 145C93.5652 145 111.37 137.625 124.497 124.497C137.625 111.37 145 93.5652 145 75C145 56.4349 137.625 38.6301 124.497 25.5025C111.37 12.375 93.5652 5.00001 75 5" stroke="url(#C)" stroke-width="8" stroke-dasharray="0.5 5"/></g><use xlink:href="#H" fill="url(#D)"/><use xlink:href="#H" stroke="#fff" stroke-opacity=".1"/><path d="M75 134.17C75 135.181 75.8196 136.003 76.8298 135.973C84.2165 135.751 91.5068 134.189 98.3437 131.357C105.745 128.291 112.469 123.798 118.134 118.133C123.798 112.469 128.291 105.744 131.357 98.3436C134.422 90.9427 136 83.0105 136 74.9999C136 66.9892 134.422 59.057 131.357 51.6561C128.291 44.2553 123.798 37.5307 118.133 31.8663C112.469 26.202 105.744 21.7088 98.3435 18.6433C91.5066 15.8113 84.2162 14.2491 76.8295 14.0274C75.8193 13.9971 74.9997 14.8193 74.9997 15.83C74.9997 16.8407 75.8193 17.6569 76.8295 17.6892C83.7354 17.9096 90.55 19.3767 96.9428 22.0247C103.9 24.9062 110.221 29.1299 115.545 34.4544C120.87 39.7789 125.094 46.1 127.975 53.0568C130.857 60.0136 132.34 67.4699 132.34 74.9999C132.34 82.5299 130.857 89.9861 127.975 96.943C125.094 103.9 120.87 110.221 115.546 115.545C110.221 120.87 103.9 125.094 96.9431 127.975C90.5503 130.623 83.7357 132.09 76.8297 132.311C75.8196 132.343 75 133.159 75 134.17Z" stroke="url(#E)"/><g filter="url(#B)"><path d="M85.231 135.292c2.017 3.278-.271 7.51-4.118 7.618l-13.11.368c-3.847.108-6.369-3.99-4.539-7.376l6.236-11.537c1.83-3.386 6.64-3.521 8.657-.243l6.873 11.17z" fill="url(#F)" fill-opacity=".5"/><path d="M81.1265 143.41C85.3588 143.291 87.8754 138.636 85.6565 135.03L78.7833 123.86C76.5644 120.254 71.2741 120.403 69.2608 124.127L63.0244 135.664C61.011 139.389 63.7847 143.896 68.0169 143.778L81.1265 143.41Z" stroke="url(#G)" stroke-opacity=".6"/></g><defs><filter id="A" x="75" y="1" width="74" height="148" filterUnits="userSpaceOnUse" color-interpolation-filters="sRGB"><feFlood flood-opacity="0"/><feBlend in="SourceGraphic" result="B"/><feColorMatrix in="SourceAlpha" values="0 0 0 0 0 0 0 0 0 0 0 0 0 0 0 0 0 0 127 0" result="C"/><feOffset dy="1"/><feComposite in2="C" operator="arithmetic" k2="-1" k3="1"/><feColorMatrix values="0 0 0 0 0.556863 0 0 0 0 0.607843 0 0 0 0 0.682353 0 0 0 0.5 0"/><feBlend in2="B"/></filter><filter id="B" x="51.854" y="110.743" width="45.127" height="43.537" filterUnits="userSpaceOnUse" color-interpolation-filters="sRGB"><feFlood flood-opacity="0"/><feGaussianBlur stdDeviation="5"/><feComposite in2="SourceAlpha" operator="in"/><feBlend in="SourceGraphic" result="C"/><feColorMatrix in="SourceAlpha" values="0 0 0 0 0 0 0 0 0 0 0 0 0 0 0 0 0 0 127 0" result="D"/><feOffset/><feGaussianBlur stdDeviation="10"/><feComposite in2="D" operator="arithmetic" k2="-1" k3="1"/><feColorMatrix values="0 0 0 0 0.497041 0 0 0 0 0.638518 0 0 0 0 0.740967 0 0 0 0.52 0"/><feBlend in2="C"/></filter><linearGradient id="C" x1="104.161" y1="8.051" x2="135.689" y2="124.502" xlink:href="#I"><stop stop-color="#d782ff"/><stop offset=".966" stop-color="#00a3ff"/></linearGradient><linearGradient id="D" x1="33.409" y1="14" x2="136" y2="136" xlink:href="#I"><stop stop-color="#fff"/><stop offset=".75" stop-color="#285299"/></linearGradient><linearGradient id="E" x1="75" y1="8.281" x2="75" y2="136" xlink:href="#I"><stop stop-color="#2737cf" stop-opacity="0"/><stop offset="1" stop-color="#bdfcfe"/></linearGradient><radialGradient id="F" cx="0" cy="0" r="1" gradientTransform="translate(74.2948 134.342) rotate(-151.606) scale(21.8672 10.8393)" xlink:href="#I"><stop stop-color="#2e335a"/><stop offset="1" stop-color="#1c1b33" stop-opacity=".2"/></radialGradient><radialGradient id="G" cx="0" cy="0" r="1" gradientTransform="translate(74.3114 134.312) rotate(-151.606) scale(17.5718)" xlink:href="#I"><stop offset=".322" stop-color="#fff"/><stop offset=".495" stop-color="#74a2b6" stop-opacity=".05"/><stop offset=".699" stop-color="#84c5e1"/><stop offset=".992" stop-color="#17b9ff" stop-opacity="0"/><stop offset=".993" stop-color="#5b8698" stop-opacity="0"/></radialGradient><path id="H" d="M75 134.17c0 1.011.82 1.833 1.83 1.803 7.387-.222 14.677-1.784 21.514-4.616 7.401-3.066 14.125-7.559 19.79-13.224A61.01 61.01 0 0 0 136 75a61.01 61.01 0 0 0-4.643-23.344 61 61 0 0 0-33.013-33.013 61 61 0 0 0-21.514-4.616c-1.01-.03-1.83.792-1.83 1.803s.82 1.827 1.83 1.859a57.34 57.34 0 0 1 20.113 4.336 57.33 57.33 0 0 1 18.602 12.43c5.325 5.325 9.549 11.646 12.43 18.602S132.34 67.47 132.34 75s-1.483 14.986-4.365 21.943-7.105 13.278-12.429 18.602a57.33 57.33 0 0 1-18.603 12.43 57.35 57.35 0 0 1-20.113 4.336c-1.01.032-1.83.848-1.83 1.859z"/><linearGradient id="I" gradientUnits="userSpaceOnUse"/></defs></svg>