<svg xmlns="http://www.w3.org/2000/svg" width="12" height="12" fill="none" xmlns:v="https://vecta.io/nano"><g clip-path="url(#A)" stroke="#fff" stroke-width="1.125" stroke-miterlimit="10" stroke-linejoin="round"><path d="M6.935 2.445L6.78 1.22A.25.25 0 0 0 6.53 1H4.975c-.125 0-.235.095-.25.22L4.59 2.295c-.01.09-.075.17-.16.2-.42.155-.82.395-1.165.705l-1.14-.48a.25.25 0 0 0-.315.105l-.78 1.35c-.06.11-.03.25.07.325l.985.745c-.105.505-.105 1.02-.005 1.51h.005L1.1 7.5c-.1.075-.13.215-.065.325l.78 1.35a.25.25 0 0 0 .315.105l1.14-.48-.005.005a3.76 3.76 0 0 0 .62.445 3.76 3.76 0 0 0 .695.315v-.01l.155 1.225c.005.125.115.22.24.22h1.56c.125 0 .23-.095.25-.22l.135-1.075c.01-.09.075-.17.16-.2.42-.155.82-.395 1.165-.705l1.14.48a.25.25 0 0 0 .315-.105l.78-1.35c.065-.11.035-.25-.065-.325l-.985-.745c.105-.505.105-1.02.005-1.51H9.43l.975-.745c.1-.075.13-.215.065-.325l-.78-1.35a.25.25 0 0 0-.315-.105L8.24 3.2l.005-.005a3.76 3.76 0 0 0-.62-.445 3.76 3.76 0 0 0-.695-.315" stroke-linecap="round"/><path d="M5.755 8a2 2 0 1 0 0-4 2 2 0 1 0 0 4z"/></g><defs><clipPath id="A"><path fill="#fff" d="M0 0h12v12H0z"/></clipPath></defs></svg>