<svg xmlns="http://www.w3.org/2000/svg" width="33" height="74" fill="none" xmlns:v="https://vecta.io/nano"><g stroke="#fff"><rect x="7.875" y="8.125" width="17.25" height="36" rx="8.625" stroke-opacity=".1" stroke-width=".75"/><path d="M12.5 18.75l4-4 4 4" stroke-width="1.125" stroke-linecap="round" stroke-linejoin="round"/></g><path fill="#fff" fill-opacity=".1" d="M7.5 25.75h18v.75h-18z"/><path d="M12.5 33.5l4 4 4-4" stroke="#fff" stroke-width="1.125" stroke-linecap="round" stroke-linejoin="round"/><path d="M11.13 62v-.716l2.215-2.295.585-.655c.156-.19.272-.37.348-.54a1.31 1.31 0 0 0 .115-.543 1.01 1.01 0 0 0-.153-.562 1 1 0 0 0-.419-.367 1.33 1.33 0 0 0-.598-.131c-.234 0-.439.048-.614.144s-.309.231-.403.406-.141.379-.141.614h-.943c0-.398.092-.747.275-1.045s.435-.529.754-.694.683-.249 1.09-.249.773.082 1.087.246.562.384.738.665a1.73 1.73 0 0 1 .265.946c0 .243-.046.48-.137.713s-.246.491-.47.777-.535.627-.933 1.032l-1.301 1.361v.048h2.947V62H11.13zm5.241-1.278v-.799l2.829-4.468h.63v1.176h-.399l-2.023 3.202v.051h3.877v.837h-4.912zM19.474 62v-1.521l.006-.364v-4.66h.937V62h-.943z" fill="#fff" fill-opacity=".7"/></svg>