<svg xmlns="http://www.w3.org/2000/svg" width="53" height="57" fill="none" xmlns:v="https://vecta.io/nano"><g filter="url(#A)"><path d="M15.893 11.107c5-5 7.5-7.5 10.607-7.5s5.607 2.5 10.607 7.5l.787.787c5 5 7.5 7.5 7.5 10.607s-2.5 5.607-7.5 10.607l-.787.787c-5 5-7.5 7.5-10.607 7.5s-5.607-2.5-10.607-7.5l-.787-.787c-5-5-7.5-7.5-7.5-10.607s2.5-5.607 7.5-10.607l.787-.787z" fill="#000" fill-opacity=".6" shape-rendering="crispEdges"/><path d="M16.159 11.372l5.976-5.592c1.605-1.225 2.927-1.798 4.366-1.798s2.761.574 4.366 1.798c1.614 1.231 3.468 3.085 5.976 5.592l.787.787 5.592 5.976c1.224 1.605 1.798 2.927 1.798 4.366s-.574 2.761-1.798 4.366c-1.231 1.614-3.085 3.468-5.592 5.976l-.787.787-5.976 5.592c-1.605 1.224-2.927 1.798-4.366 1.798s-2.761-.574-4.366-1.798c-1.614-1.231-3.468-3.085-5.976-5.592l-.787-.787-5.592-5.976c-1.225-1.605-1.798-2.927-1.798-4.366s.574-2.761 1.798-4.366c1.231-1.614 3.085-3.468 5.592-5.976l.787-.787z" stroke="#fff" stroke-opacity=".1" stroke-width=".75" shape-rendering="crispEdges"/></g><path d="M29.764 14c-2.899 0-5.236 2.336-5.236 5.236 0 .154.024.362.041.552l-5.604 5.603A3.27 3.27 0 0 0 18 27.713a3.27 3.27 0 0 0 .251 1.257c.166.398.409.76.715 1.064s.666.549 1.064.715a3.27 3.27 0 0 0 2.514 0 3.27 3.27 0 0 0 1.064-.715l5.603-5.604.552.041c2.899 0 5.236-2.336 5.236-5.236a4.97 4.97 0 0 0-.614-2.414l-.409-.756-.613.614-2.823 2.801-1.022-1.022 2.801-2.822.615-.614-.757-.409c-.74-.405-1.57-.616-2.414-.613zm0 1.309c.318 0 .555.138.838.205l-2.474 2.474-.471.471.471.45 1.963 1.963.45.471.47-.471 2.475-2.474c.067.283.204.52.204.838a3.88 3.88 0 0 1-3.927 3.927c-.262 0-.471 0-.635-.041l-.347-.102-.266.266-5.829 5.829c-.805.805-1.996.805-2.801 0l-.021-.021c-.785-.805-.779-1.983.02-2.781l5.829-5.829.266-.266-.103-.347c-.039-.164-.041-.373-.041-.635a3.88 3.88 0 0 1 3.927-3.927z" fill="#fff"/><defs><filter id="A" x="-7.393" y="-11.393" width="67.787" height="67.787" filterUnits="userSpaceOnUse" color-interpolation-filters="sRGB"><feFlood flood-opacity="0"/><feGaussianBlur stdDeviation="7.5"/><feComposite in2="SourceAlpha" operator="in" result="B"/><feColorMatrix in="SourceAlpha" values="0 0 0 0 0 0 0 0 0 0 0 0 0 0 0 0 0 0 127 0" result="C"/><feOffset dy="7.5"/><feGaussianBlur stdDeviation="3.75"/><feComposite in2="C" operator="out"/><feColorMatrix values="0 0 0 0 0 0 0 0 0 0 0 0 0 0 0 0 0 0 0.1 0"/><feBlend in2="B" result="D"/><feColorMatrix in="SourceAlpha" values="0 0 0 0 0 0 0 0 0 0 0 0 0 0 0 0 0 0 127 0" result="C"/><feOffset dy="3"/><feGaussianBlur stdDeviation="1.5"/><feComposite in2="C" operator="out"/><feColorMatrix values="0 0 0 0 0 0 0 0 0 0 0 0 0 0 0 0 0 0 0.05 0"/><feBlend in2="D" result="E"/><feColorMatrix in="SourceAlpha" values="0 0 0 0 0 0 0 0 0 0 0 0 0 0 0 0 0 0 127 0" result="C"/><feOffset dy="0.75"/><feComposite in2="C" operator="out"/><feColorMatrix values="0 0 0 0 0 0 0 0 0 0 0 0 0 0 0 0 0 0 0.05 0"/><feBlend in2="E"/><feBlend in="SourceGraphic"/></filter></defs></svg>