<svg xmlns="http://www.w3.org/2000/svg" width="80" height="46" fill="none" xmlns:v="https://vecta.io/nano"><style><![CDATA[.B{stroke:#fff}.C{stroke-width:1.125}.D{stroke-miterlimit:10}.E{stroke-linejoin:round}.F{stroke-linecap:round}.G{shape-rendering:crispEdges}.H{color-interpolation-filters:sRGB}.I{flood-opacity:0}.J{stroke-opacity:.1}]]></style><g filter="url(#A)"><rect x="8.333" y=".75" width="63.5" height="29.5" rx="14.75" fill="#000" fill-opacity=".6" class="G"/><rect x="8.708" y="1.125" width="62.75" height="28.75" rx="14.375" stroke-width=".75" class="B G J"/><g filter="url(#B)" class="B C D E"><path d="M28.418 17.204a5.46 5.46 0 0 1-1.287 2.019 5.5 5.5 0 0 1-7.773 0c-2.147-2.146-2.147-5.625 0-7.771a5.46 5.46 0 0 1 2.02-1.286c-.7 1.939-.273 4.192 1.287 5.752s3.813 1.986 5.753 1.286z"/></g><g filter="url(#C)"><rect x="43.083" y="1.5" width="28" height="28" rx="14" fill="#000" fill-opacity=".6" class="G"/><rect x="43.458" y="1.875" width="27.25" height="27.25" rx="13.625" stroke-width=".75" class="B G J"/><g clip-path="url(#D)" class="B C D E"><path d="M57.083 18.833c1.841 0 3.333-1.492 3.333-3.333s-1.492-3.333-3.333-3.333-3.333 1.492-3.333 3.333 1.492 3.333 3.333 3.333z"/><path d="M57.083 10.167V8.833" class="F"/><path d="M57.083 22.167v-1.333" class="F"/><path d="M62.417 15.5h1.333" class="F"/><path d="M50.417 15.5h1.333" class="F"/><path d="M60.855 11.729l.943-.943" class="F"/><path d="M52.369 20.214l.943-.943" class="F"/><path d="M53.312 11.729l-.943-.943" class="F"/><path d="M61.797 20.214l-.943-.943" class="F"/></g></g></g><defs><filter id="A" x="-6.667" y="-14.25" width="93.5" height="59.5" filterUnits="userSpaceOnUse" class="H"><feFlood class="I"/><feGaussianBlur stdDeviation="7.5"/><feComposite in2="SourceAlpha" operator="in" result="B"/><feColorMatrix in="SourceAlpha" values="0 0 0 0 0 0 0 0 0 0 0 0 0 0 0 0 0 0 127 0" result="C"/><feOffset dy="7.5"/><feGaussianBlur stdDeviation="3.75"/><feComposite in2="C" operator="out"/><feColorMatrix values="0 0 0 0 0 0 0 0 0 0 0 0 0 0 0 0 0 0 0.1 0"/><feBlend in2="B" result="D"/><feColorMatrix in="SourceAlpha" values="0 0 0 0 0 0 0 0 0 0 0 0 0 0 0 0 0 0 127 0" result="C"/><feOffset dy="3"/><feGaussianBlur stdDeviation="1.5"/><feComposite in2="C" operator="out"/><feColorMatrix values="0 0 0 0 0 0 0 0 0 0 0 0 0 0 0 0 0 0 0.05 0"/><feBlend in2="D" result="E"/><feColorMatrix in="SourceAlpha" values="0 0 0 0 0 0 0 0 0 0 0 0 0 0 0 0 0 0 127 0" result="C"/><feOffset dy="0.75"/><feComposite in2="C" operator="out"/><feColorMatrix values="0 0 0 0 0 0 0 0 0 0 0 0 0 0 0 0 0 0 0.05 0"/><feBlend in2="E"/><feBlend in="SourceGraphic"/></filter><filter id="B" x="-5.917" y="-13.5" width="58" height="58" filterUnits="userSpaceOnUse" class="H"><feFlood class="I"/><feGaussianBlur stdDeviation="7.5"/><feComposite in2="SourceAlpha" operator="in" result="B"/><feColorMatrix in="SourceAlpha" values="0 0 0 0 0 0 0 0 0 0 0 0 0 0 0 0 0 0 127 0" result="C"/><feOffset dy="7.5"/><feGaussianBlur stdDeviation="3.75"/><feComposite in2="C" operator="out"/><feColorMatrix values="0 0 0 0 0 0 0 0 0 0 0 0 0 0 0 0 0 0 0.1 0"/><feBlend in2="B" result="D"/><feColorMatrix in="SourceAlpha" values="0 0 0 0 0 0 0 0 0 0 0 0 0 0 0 0 0 0 127 0" result="C"/><feOffset dy="3"/><feGaussianBlur stdDeviation="1.5"/><feComposite in2="C" operator="out"/><feColorMatrix values="0 0 0 0 0 0 0 0 0 0 0 0 0 0 0 0 0 0 0.05 0"/><feBlend in2="D" result="E"/><feColorMatrix in="SourceAlpha" values="0 0 0 0 0 0 0 0 0 0 0 0 0 0 0 0 0 0 127 0" result="C"/><feOffset dy="0.75"/><feComposite in2="C" operator="out"/><feColorMatrix values="0 0 0 0 0 0 0 0 0 0 0 0 0 0 0 0 0 0 0.05 0"/><feBlend in2="E"/><feBlend in="SourceGraphic"/></filter><filter id="C" x="28.083" y="-13.5" width="58" height="58" filterUnits="userSpaceOnUse" class="H"><feFlood class="I"/><feGaussianBlur stdDeviation="7.5"/><feComposite in2="SourceAlpha" operator="in" result="B"/><feColorMatrix in="SourceAlpha" values="0 0 0 0 0 0 0 0 0 0 0 0 0 0 0 0 0 0 127 0" result="C"/><feOffset dy="7.5"/><feGaussianBlur stdDeviation="3.75"/><feComposite in2="C" operator="out"/><feColorMatrix values="0 0 0 0 0 0 0 0 0 0 0 0 0 0 0 0 0 0 0.1 0"/><feBlend in2="B" result="D"/><feColorMatrix in="SourceAlpha" values="0 0 0 0 0 0 0 0 0 0 0 0 0 0 0 0 0 0 127 0" result="C"/><feOffset dy="3"/><feGaussianBlur stdDeviation="1.5"/><feComposite in2="C" operator="out"/><feColorMatrix values="0 0 0 0 0 0 0 0 0 0 0 0 0 0 0 0 0 0 0.05 0"/><feBlend in2="D" result="E"/><feColorMatrix in="SourceAlpha" values="0 0 0 0 0 0 0 0 0 0 0 0 0 0 0 0 0 0 127 0" result="C"/><feOffset dy="0.75"/><feComposite in2="C" operator="out"/><feColorMatrix values="0 0 0 0 0 0 0 0 0 0 0 0 0 0 0 0 0 0 0.05 0"/><feBlend in2="E"/><feBlend in="SourceGraphic"/></filter><clipPath id="D"><path fill="#fff" transform="translate(49.083 7.5)" d="M0 0h16v16H0z"/></clipPath></defs></svg>