<svg xmlns="http://www.w3.org/2000/svg" width="24" height="24" fill="none" xmlns:v="https://vecta.io/nano"><path d="M23 6.942c0-.525-.068-1.038-.197-1.523-.112-.426-.638-.528-.948-.216l-2.106 2.106a2.16 2.16 0 0 1-1.528.633 2.16 2.16 0 0 1-1.528-.633 2.16 2.16 0 0 1-.633-1.528 2.16 2.16 0 0 1 .633-1.528l2.106-2.104c.312-.312.21-.837-.216-.95a5.94 5.94 0 0 0-5.895 1.715A5.94 5.94 0 0 0 11.46 8.93a.67.67 0 0 1-.144.7l-9.949 9.948a1.25 1.25 0 0 0 0 1.77l1.286 1.286a1.25 1.25 0 0 0 1.769 0l9.949-9.948c.183-.183.457-.232.7-.146a5.94 5.94 0 0 0 5.416-.744A5.94 5.94 0 0 0 23 6.942z" stroke="#fff" stroke-width="1.5" stroke-linejoin="round"/></svg>