<svg xmlns="http://www.w3.org/2000/svg" width="40" height="38" fill="none" xmlns:v="https://vecta.io/nano"><path d="M34.171 5.529c-1.843-1.76-4.038-3.155-6.457-4.104S22.7-.009 20.08 0C9.106 0 .161 8.455.161 18.829c0 3.325.925 6.555 2.653 9.405L0 38l10.553-2.622c2.915 1.501 6.191 2.299 9.528 2.299 10.975 0 19.92-8.455 19.92-18.829 0-5.035-2.07-9.766-5.829-13.319zM20.08 34.485c-2.975 0-5.889-.76-8.442-2.185l-.603-.342-6.271 1.558 1.668-5.776-.402-.589c-1.653-2.495-2.53-5.378-2.533-8.322 0-8.626 7.437-15.656 16.563-15.656 4.422 0 8.583 1.634 11.699 4.598 1.543 1.452 2.765 3.178 3.597 5.08a14.81 14.81 0 0 1 1.247 5.997c.04 8.626-7.397 15.637-16.523 15.637zm9.085-11.704l-3.397-1.539c-.462-.152-.784-.228-1.126.228-.342.475-1.286 1.539-1.568 1.843-.281.323-.583.361-1.085.114-.502-.228-2.11-.741-4-2.337-1.487-1.254-2.472-2.793-2.774-3.268-.281-.475-.04-.722.221-.969.221-.209.502-.551.744-.817s.342-.475.502-.779c.161-.323.08-.589-.04-.817s-1.126-2.546-1.528-3.496c-.402-.912-.824-.798-1.126-.817h-.965c-.342 0-.864.114-1.327.589-.442.475-1.729 1.615-1.729 3.933s1.789 4.56 2.03 4.864c.241.323 3.518 5.073 8.503 7.106a25.25 25.25 0 0 0 2.834.988c1.186.361 2.271.304 3.136.19.965-.133 2.955-1.14 3.357-2.242.422-1.102.422-2.033.282-2.242s-.442-.304-.945-.532z" fill="#fff"/></svg>