<svg width="1440" height="1353" viewBox="0 0 1440 1353" fill="none" xmlns="http://www.w3.org/2000/svg">
<rect opacity="0.3" x="1068.71" y="534" width="198.404" height="198.404" transform="rotate(-45 1068.71 534)" stroke="url(#paint0_angular_1_3202)"/>
<rect opacity="0.1" width="1409.1" height="1" transform="matrix(-0.747729 0.664004 0.747729 0.664004 1637.99 -66.5828)" fill="url(#paint1_linear_1_3202)"/>
<rect opacity="0.1" width="1409.1" height="1" transform="matrix(0.747729 0.664004 -0.747729 0.664004 -196.904 -66.5828)" fill="url(#paint2_linear_1_3202)"/>
<rect opacity="0.1" width="1292" height="0.999972" transform="matrix(2.16865e-08 1 1 -8.81047e-08 1208 60.1445)" fill="url(#paint3_linear_1_3202)"/>
<rect opacity="0.1" x="233.087" y="60.1445" width="1292" height="0.999972" transform="rotate(90 233.087 60.1445)" fill="url(#paint4_linear_1_3202)"/>
<path opacity="0.1" d="M1551 391.75L1442.25 391.75L1415.75 365.25H1258.5L1209 315.75" stroke="url(#paint5_linear_1_3202)"/>
<path opacity="0.1" d="M-109.913 391.75L-1.16284 391.75L25.3372 365.25H182.587L232.087 315.75" stroke="url(#paint6_linear_1_3202)"/>
<rect opacity="0.2" width="1409.1" height="1" transform="matrix(-0.747729 0.664004 0.747729 0.664004 1350.97 -67)" fill="url(#paint7_linear_1_3202)"/>
<rect opacity="0.2" width="1409.1" height="1" transform="matrix(0.747729 0.664004 -0.747729 0.664004 90.1138 -67)" fill="url(#paint8_linear_1_3202)"/>
<rect opacity="0.1" width="1998" height="1" transform="matrix(-1 0 0 1 1800 533)" fill="url(#paint9_linear_1_3202)"/>
<rect opacity="0.1" x="-198" y="1161" width="1998" height="1" fill="url(#paint10_linear_1_3202)"/>
<defs>
<radialGradient id="paint0_angular_1_3202" cx="0" cy="0" r="1" gradientUnits="userSpaceOnUse" gradientTransform="translate(1167.7 633.702) rotate(135) scale(141)">
<stop stop-color="white" stop-opacity="0.5"/>
<stop offset="1" stop-color="white" stop-opacity="0.05"/>
</radialGradient>
<linearGradient id="paint1_linear_1_3202" x1="0" y1="0" x2="919.181" y2="1.51961e-07" gradientUnits="userSpaceOnUse">
<stop stop-color="#D9D9D9"/>
<stop offset="1" stop-color="#D9D9D9" stop-opacity="0"/>
</linearGradient>
<linearGradient id="paint2_linear_1_3202" x1="0" y1="0" x2="919.181" y2="1.51961e-07" gradientUnits="userSpaceOnUse">
<stop stop-color="#D9D9D9"/>
<stop offset="1" stop-color="#D9D9D9" stop-opacity="0"/>
</linearGradient>
<linearGradient id="paint3_linear_1_3202" x1="0" y1="0" x2="842.795" y2="1.27758e-07" gradientUnits="userSpaceOnUse">
<stop stop-color="#D9D9D9"/>
<stop offset="1" stop-color="#D9D9D9" stop-opacity="0"/>
</linearGradient>
<linearGradient id="paint4_linear_1_3202" x1="233.087" y1="60.1445" x2="1075.88" y2="60.1445" gradientUnits="userSpaceOnUse">
<stop stop-color="#D9D9D9"/>
<stop offset="1" stop-color="#D9D9D9" stop-opacity="0"/>
</linearGradient>
<linearGradient id="paint5_linear_1_3202" x1="1220" y1="345" x2="1586" y2="419" gradientUnits="userSpaceOnUse">
<stop stop-color="white"/>
<stop offset="1" stop-color="white" stop-opacity="0"/>
</linearGradient>
<linearGradient id="paint6_linear_1_3202" x1="221.087" y1="345" x2="-144.913" y2="419" gradientUnits="userSpaceOnUse">
<stop stop-color="white"/>
<stop offset="1" stop-color="white" stop-opacity="0"/>
</linearGradient>
<linearGradient id="paint7_linear_1_3202" x1="0" y1="0" x2="919.181" y2="1.51961e-07" gradientUnits="userSpaceOnUse">
<stop stop-color="#D9D9D9"/>
<stop offset="1" stop-color="#D9D9D9" stop-opacity="0"/>
</linearGradient>
<linearGradient id="paint8_linear_1_3202" x1="0" y1="0" x2="919.181" y2="1.51961e-07" gradientUnits="userSpaceOnUse">
<stop stop-color="#D9D9D9"/>
<stop offset="1" stop-color="#D9D9D9" stop-opacity="0"/>
</linearGradient>
<linearGradient id="paint9_linear_1_3202" x1="0" y1="0" x2="1303.33" y2="3.05521e-07" gradientUnits="userSpaceOnUse">
<stop stop-color="#D9D9D9"/>
<stop offset="1" stop-color="#D9D9D9" stop-opacity="0.5"/>
</linearGradient>
<linearGradient id="paint10_linear_1_3202" x1="-198" y1="1161" x2="1105.33" y2="1161" gradientUnits="userSpaceOnUse">
<stop stop-color="#D9D9D9"/>
<stop offset="1" stop-color="#D9D9D9" stop-opacity="0.5"/>
</linearGradient>
</defs>
</svg>
