<svg width="56" height="56" viewBox="0 0 56 56" fill="none" xmlns="http://www.w3.org/2000/svg">
<g filter="url(#filter0_bddd_2307_1390)">
<rect x="10" width="36" height="36" rx="18" fill="black" fill-opacity="0.6" shape-rendering="crispEdges"/>
<rect x="10.5" y="0.5" width="35" height="35" rx="17.5" stroke="white" stroke-opacity="0.1" shape-rendering="crispEdges"/>
<g clip-path="url(#clip0_2307_1390)">
<path d="M32.8934 24.6666H23.1067C22.1267 24.6666 21.3334 23.8733 21.3334 22.8933V13.1066C21.3334 12.1266 22.1267 11.3333 23.1067 11.3333H32.8867C33.8734 11.3333 34.6667 12.1266 34.6667 13.1066V22.8866C34.6667 23.8733 33.8734 24.6666 32.8934 24.6666Z" stroke="white" stroke-width="1.5" stroke-miterlimit="10" stroke-linecap="round" stroke-linejoin="round"/>
<path d="M30.6667 17.9999C30.6667 19.4733 29.4734 20.6666 28 20.6666C26.5267 20.6666 25.3334 19.4733 25.3334 17.9999C25.3334 16.5266 26.5267 15.3333 28 15.3333C29.4734 15.3333 30.6667 16.5266 30.6667 17.9999Z" stroke="white" stroke-width="1.5" stroke-miterlimit="10" stroke-linecap="round" stroke-linejoin="round"/>
<path d="M32.6667 13.6666C32.6667 13.8533 32.52 13.9999 32.3333 13.9999C32.1467 13.9999 32 13.8533 32 13.6666C32 13.4799 32.1467 13.3333 32.3333 13.3333C32.52 13.3333 32.6667 13.4799 32.6667 13.6666Z" stroke="white" stroke-width="1.5" stroke-miterlimit="10" stroke-linecap="round" stroke-linejoin="round"/>
</g>
</g>
<defs>
<filter id="filter0_bddd_2307_1390" x="-10" y="-20" width="76" height="76" filterUnits="userSpaceOnUse" color-interpolation-filters="sRGB">
<feFlood flood-opacity="0" result="BackgroundImageFix"/>
<feGaussianBlur in="BackgroundImageFix" stdDeviation="10"/>
<feComposite in2="SourceAlpha" operator="in" result="effect1_backgroundBlur_2307_1390"/>
<feColorMatrix in="SourceAlpha" type="matrix" values="0 0 0 0 0 0 0 0 0 0 0 0 0 0 0 0 0 0 127 0" result="hardAlpha"/>
<feOffset dy="10"/>
<feGaussianBlur stdDeviation="5"/>
<feComposite in2="hardAlpha" operator="out"/>
<feColorMatrix type="matrix" values="0 0 0 0 0 0 0 0 0 0 0 0 0 0 0 0 0 0 0.1 0"/>
<feBlend mode="normal" in2="effect1_backgroundBlur_2307_1390" result="effect2_dropShadow_2307_1390"/>
<feColorMatrix in="SourceAlpha" type="matrix" values="0 0 0 0 0 0 0 0 0 0 0 0 0 0 0 0 0 0 127 0" result="hardAlpha"/>
<feOffset dy="4"/>
<feGaussianBlur stdDeviation="2"/>
<feComposite in2="hardAlpha" operator="out"/>
<feColorMatrix type="matrix" values="0 0 0 0 0 0 0 0 0 0 0 0 0 0 0 0 0 0 0.05 0"/>
<feBlend mode="normal" in2="effect2_dropShadow_2307_1390" result="effect3_dropShadow_2307_1390"/>
<feColorMatrix in="SourceAlpha" type="matrix" values="0 0 0 0 0 0 0 0 0 0 0 0 0 0 0 0 0 0 127 0" result="hardAlpha"/>
<feOffset dy="1"/>
<feComposite in2="hardAlpha" operator="out"/>
<feColorMatrix type="matrix" values="0 0 0 0 0 0 0 0 0 0 0 0 0 0 0 0 0 0 0.05 0"/>
<feBlend mode="normal" in2="effect3_dropShadow_2307_1390" result="effect4_dropShadow_2307_1390"/>
<feBlend mode="normal" in="SourceGraphic" in2="effect4_dropShadow_2307_1390" result="shape"/>
</filter>
<clipPath id="clip0_2307_1390">
<rect width="16" height="16" fill="white" transform="translate(20 10)"/>
</clipPath>
</defs>
</svg>
